<?xml version="1.0" encoding="UTF-8" standalone="no"?>
<svg width="100px" height="100px" viewBox="0 0 100 100" version="1.1" xmlns="http://www.w3.org/2000/svg" xmlns:xlink="http://www.w3.org/1999/xlink" xmlns:sketch="http://www.bohemiancoding.com/sketch/ns">
    <!-- Generator: Sketch 3.3 (11970) - http://www.bohemiancoding.com/sketch -->
    <title>Artboard 1</title>
    <desc>Created with Sketch.</desc>
    <defs></defs>
    <g id="Page-1" stroke="none" stroke-width="1" fill="none" fill-rule="evenodd" sketch:type="MSPage">
        <g id="Artboard-1" sketch:type="MSArtboardGroup" fill="#000000">
            <g id="icon-experiment" sketch:type="MSLayerGroup" transform="translate(8.000000, 11.000000)">
                <g id="Page-1" sketch:type="MSShapeGroup">
                    <g id="2.-Approach">
                        <g id="Imported-Layers">
                            <path d="M47.0994644,69.7084578 L47.1080553,69.6951325 L51.3471916,63.2561566 L63.9662825,66.2905181 C64.0712825,66.3162169 64.1552825,66.3124096 64.2669644,66.276241 L64.3796007,66.2305542 L83.4752825,55.0439639 C83.6461462,54.9440241 83.7549644,54.7584217 83.7587825,54.559494 L84.4594189,7.57543373 L84.4460553,7.48501205 L84.4470098,7.47263855 C84.4317371,7.40220482 84.4174189,7.35937349 84.4002371,7.32225301 C84.3716007,7.26133735 84.3439189,7.22136145 84.2942825,7.17091566 C84.2799644,7.16139759 84.2599189,7.14426506 84.240828,7.12618072 L84.1377371,7.05860241 C84.0718734,7.031 84.0289189,7.0176747 83.9831007,7.01006024 L83.8828734,6.98245783 L43.0063734,1.90456627 C42.933828,1.896 42.8584189,1.89980723 42.7858734,1.92074699 L39.9737825,2.68504819 L36.6939644,0.137060241 C36.5832371,0.0466385542 36.4524644,0 36.3197825,0 C36.2291007,0 36.1374644,0.0218915663 36.0515553,0.0675783133 L23.4420098,5.66039759 C23.3322371,5.71845783 23.2501462,5.79650602 23.2005098,5.88883133 L22.332828,7.48501205 L18.9317825,8.41112048 C18.8831007,8.4263494 18.8296462,8.45204819 18.7723734,8.48821687 L18.7256007,8.52153012 C18.6626007,8.56912048 18.6396916,8.5976747 18.6148734,8.63193976 C18.5919644,8.6643012 18.5671462,8.7156988 18.5442371,8.7823253 C18.5098734,8.90415663 18.5079644,8.94793976 18.5089189,8.97839759 L18.6673734,14.2266627 L1.06937345,46.5995301 C0.946237085,46.8260602 0.990146176,47.1077952 1.17628254,47.2857831 L33.5897825,78.2185663 C33.7196007,78.343253 33.8914189,78.3956024 34.0689644,78.3746627 C34.1252825,78.3660964 34.1844644,78.3451566 34.2512825,78.308988 L34.3085553,78.2785301 L46.5086007,70.1662771 L46.5019189,70.1510482 L46.8703734,69.9235663 C46.9734644,69.8693133 47.049828,69.7969759 47.0994644,69.7084578 L47.0994644,69.7084578 L47.0994644,69.7084578 Z M63.5262371,65.0084337 L51.9227825,62.2196386 L60.3180098,47.6446145 L63.5262371,48.2851807 L63.5262371,65.0084337 L63.5262371,65.0084337 Z M48.7241007,25.6569157 L58.9596916,19.6966988 L69.6410553,28.4304819 L59.1229189,34.0670843 L48.7241007,25.6569157 L48.7241007,25.6569157 Z M58.3506916,34.9170482 L51.0694189,47.3942892 L40.760328,39.0345663 L47.8831462,26.4526265 L58.3506916,34.9170482 L58.3506916,34.9170482 Z M55.2131007,15.1537229 L63.5271916,16.4443735 L63.5271916,21.9515301 L55.2131007,15.1537229 L55.2131007,15.1537229 Z M53.2629644,13.6926988 L62.2796007,10.1300843 L72.8655098,11.6168072 L64.028328,15.3621687 L53.2629644,13.6926988 L53.2629644,13.6926988 Z M52.3571007,12.817988 L46.3301007,7.89048193 L59.9791462,9.80646988 L52.3571007,12.817988 L52.3571007,12.817988 Z M58.011828,18.9209759 L47.7686007,24.8859518 L36.8342825,16.0436627 L47.4994189,10.3280602 L58.011828,18.9209759 L58.011828,18.9209759 Z M46.976328,25.7197349 L39.8563734,38.3007229 L28.8170553,29.3461205 L35.9666007,16.8155783 L46.976328,25.7197349 L46.976328,25.7197349 Z M39.2836462,39.3115422 L31.8515553,52.4426747 L21.0432371,42.9674337 L28.2405098,30.355988 L39.2836462,39.3115422 L39.2836462,39.3115422 Z M40.1885553,40.0444337 L50.483328,48.3955904 L42.6159644,61.8798434 L32.7326007,53.2145904 L40.1885553,40.0444337 L40.1885553,40.0444337 Z M50.6780553,50.3391807 L60.4621462,45.0937711 L53.6514644,56.9180723 L43.6230098,62.429988 L50.6780553,50.3391807 L50.6780553,50.3391807 Z M63.5262371,47.1192169 L60.9222371,46.5976265 L63.5262371,42.0736867 L63.5262371,47.1192169 L63.5262371,47.1192169 Z M61.5455553,43.2158554 L61.424328,43.2796265 L51.7834189,48.4479398 L59.5457825,35.1397711 L59.6059189,35.1083614 L69.1676007,29.9838313 L61.5455553,43.2158554 L61.5455553,43.2158554 Z M74.4567371,59.0006265 L74.2228734,59.1386386 L64.6745553,64.7343133 L64.6745553,48.5336024 L74.4567371,43.3795663 L74.4567371,59.0006265 L74.4567371,59.0006265 Z M74.4567371,42.0851084 L64.6745553,47.2400964 L64.6745553,40.0786988 L71.1902825,28.7540964 L71.2361007,28.4818795 L71.1530553,28.0821205 L71.4747371,27.9098434 L74.4567371,26.4469157 L74.4567371,42.0851084 L74.4567371,42.0851084 Z M74.4567371,25.1733976 L70.0858734,27.3159157 L64.6745553,22.890012 L64.6745553,16.333012 L74.4567371,12.1850361 L74.4567371,25.1733976 L74.4567371,25.1733976 Z M82.6152371,54.2225542 L75.6050553,58.3296024 L75.6050553,42.7751687 L82.8424189,38.9622289 L82.6152371,54.2225542 L82.6152371,54.2225542 Z M82.8634189,37.6563494 L75.6060098,41.4816627 L75.6060098,25.8863012 L83.0925098,22.2123253 L82.8634189,37.6563494 L82.8634189,37.6563494 Z M83.1135098,20.9273855 L75.6060098,24.6089759 L75.6060098,11.6986627 L83.3006007,8.43777108 L83.1135098,20.9273855 L83.1135098,20.9273855 Z M81.7007825,7.87239759 L74.9158734,10.748759 L64.4359189,9.27631325 L71.273328,6.57508434 L81.7007825,7.87239759 L81.7007825,7.87239759 Z M68.9031916,6.2800241 L62.1354644,8.95460241 L49.6385553,7.19851807 L56.9160098,4.78949398 L68.9031916,6.2800241 L68.9031916,6.2800241 Z M42.9777371,3.0553012 L54.2671462,4.45921687 L47.0841916,6.83968675 L44.6214644,6.49418072 L41.0581462,3.5806988 L42.9777371,3.0553012 L42.9777371,3.0553012 Z M36.2739644,1.27637349 L46.545828,9.54091566 L35.8682825,15.2631807 L24.6886462,6.22196386 L36.2739644,1.27637349 L36.2739644,1.27637349 Z M20.9067371,10.1148554 L19.7565098,12.2116867 L19.665828,9.2820241 L20.9067371,10.1148554 L20.9067371,10.1148554 Z M23.8811007,7.04337349 L35.0616916,16.086494 L27.9121462,28.6151325 L16.9759189,19.7442892 L23.8811007,7.04337349 L23.8811007,7.04337349 Z M16.4194189,20.7674819 L27.3375098,29.6221446 L20.1621916,42.1945663 L9.73855527,33.0572169 L16.4194189,20.7674819 L16.4194189,20.7674819 Z M2.28737345,46.7641928 L9.17728254,34.0899277 L19.5827825,43.2101446 L12.1707371,56.1956506 L2.28737345,46.7641928 L2.28737345,46.7641928 Z M13.0260098,57.013253 L20.4619189,43.983012 L31.2740553,53.4611084 L23.5680098,67.0738554 L13.0260098,57.013253 L13.0260098,57.013253 Z M33.8561007,76.8926988 L24.4242371,67.890506 L32.1541462,54.2330241 L42.0270098,62.8897108 L33.8561007,76.8926988 L33.8561007,76.8926988 Z M46.1229644,69.0231566 L35.2077371,76.8546265 L42.4995098,64.3564458 L52.6864189,58.7550602 L46.1229644,69.0231566 L46.1229644,69.0231566 Z" id="Shape"></path>
                        </g>
                    </g>
                </g>
            </g>
        </g>
    </g>
</svg>