<?xml version="1.0" encoding="UTF-8" standalone="no"?>
<svg width="168px" height="168px" viewBox="0 0 168 168" version="1.1" xmlns="http://www.w3.org/2000/svg" xmlns:xlink="http://www.w3.org/1999/xlink" xmlns:sketch="http://www.bohemiancoding.com/sketch/ns">
    <!-- Generator: Sketch 3.3 (11970) - http://www.bohemiancoding.com/sketch -->
    <title>Artboard 1 Copy 2</title>
    <desc>Created with Sketch.</desc>
    <defs></defs>
    <g id="Page-1" stroke="none" stroke-width="1" fill="none" fill-rule="evenodd" sketch:type="MSPage">
        <g id="Artboard-1-Copy-2" sketch:type="MSArtboardGroup" fill="#208E37">
            <g id="Imported-Layers-Copy" sketch:type="MSLayerGroup" transform="translate(38.000000, 47.000000)">
                <path d="M85.6163265,0 L6.38367347,0 C2.91020408,0 0,2.8125 0,6.375 L0,67.78125 C0,71.25 2.81632653,74.15625 6.38367347,74.15625 L85.6163265,74.15625 C89.0897959,74.15625 92,71.34375 92,67.78125 L92,6.28125 C92,2.8125 89.0897959,0 85.6163265,0 L85.6163265,0 Z M6.38367347,3.28125 L85.6163265,3.28125 C87.3061224,3.28125 88.7142857,4.6875 88.7142857,6.375 L88.7142857,17.71875 L3.28571429,17.71875 L3.28571429,6.28125 C3.28571429,4.59375 4.69387755,3.28125 6.38367347,3.28125 L6.38367347,3.28125 Z M85.6163265,70.78125 L6.38367347,70.78125 C4.69387755,70.78125 3.28571429,69.375 3.28571429,67.6875 L3.28571429,21 L88.7142857,21 L88.7142857,67.78125 C88.7142857,69.46875 87.3061224,70.78125 85.6163265,70.78125 L85.6163265,70.78125 Z M9.3877551,11.625 C9.10612245,11.34375 8.91836735,10.875 8.91836735,10.5 C8.91836735,10.125 9.10612245,9.65625 9.3877551,9.375 C10.044898,8.8125 11.077551,8.8125 11.7346939,9.375 C12.0163265,9.65625 12.2040816,10.125 12.2040816,10.5 C12.2040816,10.875 12.0163265,11.34375 11.7346939,11.625 C11.4530612,11.90625 10.9836735,12.09375 10.6081633,12.09375 C10.2326531,12.09375 9.66938776,11.90625 9.3877551,11.625 L9.3877551,11.625 Z M18.2122449,11.625 C17.9306122,11.34375 17.7428571,10.875 17.7428571,10.5 C17.7428571,10.125 17.9306122,9.65625 18.2122449,9.375 C18.7755102,8.8125 19.9020408,8.8125 20.5591837,9.375 C20.8408163,9.65625 21.0285714,10.125 21.0285714,10.5 C21.0285714,10.875 20.8408163,11.34375 20.5591837,11.625 C20.277551,11.90625 19.8081633,12.09375 19.4326531,12.09375 C19.0571429,12.09375 18.4938776,11.90625 18.2122449,11.625 L18.2122449,11.625 Z M27.1306122,11.625 C26.8489796,11.34375 26.6612245,10.875 26.6612245,10.5 C26.6612245,10.125 26.8489796,9.65625 27.1306122,9.375 C27.6938776,8.8125 28.8204082,8.8125 29.477551,9.375 C29.7591837,9.65625 29.9469388,10.125 29.9469388,10.5 C29.9469388,10.875 29.7591837,11.34375 29.477551,11.625 C29.1959184,11.90625 28.7265306,12.09375 28.3510204,12.09375 C27.9755102,12.09375 27.4122449,11.90625 27.1306122,11.625 L27.1306122,11.625 Z M75.1020408,44.8125 C75.477551,45.09375 75.6653061,45.5625 75.6653061,46.03125 C75.6653061,46.5 75.477551,46.96875 75.1020408,47.25 L61.2081633,59.15625 C60.8326531,59.4375 60.4571429,59.53125 60.0816327,59.53125 C59.6122449,59.53125 59.1428571,59.34375 58.8612245,58.96875 C58.2979592,58.3125 58.3918367,57.28125 59.0489796,56.625 L71.5346939,46.03125 L59.0489796,35.53125 C58.3918367,34.96875 58.2979592,33.9375 58.8612245,33.1875 C59.4244898,32.53125 60.4571429,32.4375 61.2081633,33 L75.1020408,44.8125 L75.1020408,44.8125 Z M32.9510204,56.625 C33.6081633,57.1875 33.7020408,58.21875 33.1387755,58.96875 C32.8571429,59.34375 32.3877551,59.53125 31.9183673,59.53125 C31.5428571,59.53125 31.1673469,59.4375 30.8857143,59.15625 L16.8979592,47.34375 C16.522449,47.0625 16.3346939,46.59375 16.3346939,46.125 C16.3346939,45.65625 16.522449,45.1875 16.8979592,44.90625 L30.7918367,33.09375 C31.4489796,32.53125 32.4816327,32.625 33.1387755,33.28125 C33.7959184,33.9375 33.6081633,34.96875 32.9510204,35.625 L20.4653061,46.125 L32.9510204,56.625 L32.9510204,56.625 Z M53.4163265,31.96875 L41.5877551,61.5 C41.3061224,62.15625 40.7428571,62.53125 40.0857143,62.53125 C39.8979592,62.53125 39.7102041,62.53125 39.522449,62.4375 C38.677551,62.0625 38.3020408,61.125 38.5836735,60.28125 L50.4122449,30.75 C50.7877551,29.90625 51.7265306,29.53125 52.5714286,29.8125 C53.322449,30.1875 53.6979592,31.125 53.4163265,31.96875 L53.4163265,31.96875 Z" id="Imported-Layers" sketch:type="MSShapeGroup"></path>
            </g>
        </g>
    </g>
</svg>