<?xml version="1.0" encoding="UTF-8" standalone="no"?>
<svg width="100px" height="100px" viewBox="0 0 100 100" version="1.1" xmlns="http://www.w3.org/2000/svg" xmlns:xlink="http://www.w3.org/1999/xlink" xmlns:sketch="http://www.bohemiancoding.com/sketch/ns">
    <!-- Generator: Sketch 3.3 (11970) - http://www.bohemiancoding.com/sketch -->
    <title>Artboard 1</title>
    <desc>Created with Sketch.</desc>
    <defs></defs>
    <g id="Page-1" stroke="none" stroke-width="1" fill="none" fill-rule="evenodd" sketch:type="MSPage">
        <g id="Artboard-1" sketch:type="MSArtboardGroup" fill="#000000">
            <g id="Imported-Layers" sketch:type="MSLayerGroup" transform="translate(15.000000, 10.000000)">
                <path d="M12.784,40.592 L26.932,33.788 L26.932,30.256 L11.43,38.697 L11.43,42.669 L26.932,51.145 L26.932,47.652 L12.784,40.592" id="Fill-1" sketch:type="MSShapeGroup"></path>
                <path d="M37.386,24.668 L31.358,56.33 L32.527,56.33 L38.622,24.668 L37.386,24.668" id="Fill-2" sketch:type="MSShapeGroup"></path>
                <path d="M43.05,47.676 L43.05,51.171 L58.57,42.669 L58.57,38.743 L43.05,30.299 L43.05,33.748 L57.204,40.675 L43.05,47.676" id="Fill-3" sketch:type="MSShapeGroup"></path>
                <path d="M69.285,60.291 L69.285,20.707 L34.999,0.912 L0.715,20.706 L0.715,60.294 L34.999,80.088 L69.285,60.291 L69.285,60.291 Z M1.82,21.343 L1.945,21.271 L34.999,2.188 L68.18,21.344 L68.18,59.656 L34.999,78.812 L1.82,59.656 L1.82,21.343 L1.82,21.343 Z" id="Fill-4" sketch:type="MSShapeGroup"></path>
            </g>
        </g>
    </g>
</svg>