<?xml version="1.0" encoding="UTF-8" standalone="no"?>
<svg width="168px" height="168px" viewBox="0 0 168 168" version="1.1" xmlns="http://www.w3.org/2000/svg" xmlns:xlink="http://www.w3.org/1999/xlink" xmlns:sketch="http://www.bohemiancoding.com/sketch/ns">
    <!-- Generator: Sketch 3.3 (11970) - http://www.bohemiancoding.com/sketch -->
    <title>Artboard 1</title>
    <desc>Created with Sketch.</desc>
    <defs></defs>
    <g id="Page-1" stroke="none" stroke-width="1" fill="none" fill-rule="evenodd" sketch:type="MSPage">
        <g id="Artboard-1" sketch:type="MSArtboardGroup" fill="#19A9E3">
            <g id="Imported-Layers" sketch:type="MSLayerGroup" transform="translate(42.333333, 30.078431)">
                <g sketch:type="MSShapeGroup">
                    <path d="M19.9712644,61.6862745 L19.5402299,61.6862745 C19.2528736,61.6862745 19.1091954,61.6862745 18.9655172,61.8300654 C18.2471264,62.2614379 17.9597701,63.124183 18.3908046,63.8431373 C18.5344828,64.2745098 18.8218391,64.5620915 19.5402299,64.5620915 C19.683908,64.5620915 19.9712644,64.4183007 20.1149425,64.2745098 C20.8333333,63.8431373 21.1206897,62.8366013 20.6896552,62.2614379 C20.545977,62.1176471 20.2586207,61.8300654 19.9712644,61.6862745" id="Fill-1"></path>
                    <path d="M71.6954023,0 C66.6666667,0 62.5,4.16993464 62.5,9.20261438 C62.5,14.2352941 66.6666667,18.4052288 71.6954023,18.4052288 C76.7241379,18.4052288 80.8908046,14.2352941 80.8908046,9.20261438 C81.0344828,4.16993464 76.8678161,0 71.6954023,0 L71.6954023,0 Z M71.6954023,15.3856209 C68.2471264,15.3856209 65.3735632,12.5098039 65.3735632,9.05882353 C65.3735632,5.60784314 68.2471264,2.73202614 71.6954023,2.73202614 C75.1436782,2.73202614 78.0172414,5.60784314 78.0172414,9.05882353 C78.0172414,12.5098039 75.1436782,15.3856209 71.6954023,15.3856209 L71.6954023,15.3856209 Z" id="Fill-2"></path>
                    <path d="M21.8390805,29.1895425 L28.3045977,35.6601307 L21.8390805,42.130719 C21.2643678,42.7058824 21.2643678,43.7124183 21.8390805,44.2875817 L21.9827586,44.4313725 C22.1264368,44.5751634 22.5574713,44.7189542 22.8448276,44.7189542 C23.1321839,44.7189542 23.4195402,44.5751634 23.8505747,44.2875817 L30.316092,37.8169935 L37.2126437,44.4313725 C37.3563218,44.5751634 37.7873563,44.7189542 38.0747126,44.7189542 C38.362069,44.7189542 38.6494253,44.5751634 39.0804598,44.2875817 C39.6551724,43.7124183 39.6551724,42.7058824 39.0804598,42.130719 L32.6149425,35.6601307 L39.0804598,29.1895425 C39.6551724,28.6143791 39.6551724,27.6078431 39.0804598,27.0326797 C38.5057471,26.4575163 37.5,26.4575163 36.9252874,27.0326797 L30.4597701,33.503268 L23.9942529,27.0326797 C23.4195402,26.4575163 22.4137931,26.4575163 21.8390805,27.0326797 C21.408046,27.751634 21.408046,28.7581699 21.8390805,29.1895425" id="Fill-3"></path>
                    <path d="M39.9425287,60.6797386 C39.9425287,59.9607843 39.2241379,59.2418301 38.5057471,59.2418301 C37.6436782,59.2418301 37.0689655,59.9607843 37.0689655,60.6797386 C37.0689655,61.5424837 37.7873563,62.1176471 38.5057471,62.1176471 C39.3678161,62.1176471 39.9425287,61.3986928 39.9425287,60.6797386" id="Fill-4"></path>
                    <path d="M65.3735632,87.7124183 L71.8390805,81.2418301 L78.4482759,87.8562092 C78.591954,88 79.0229885,88.1437908 79.3103448,88.1437908 C79.5977011,88.1437908 79.8850575,88 80.316092,87.7124183 C80.8908046,87.1372549 80.8908046,86.130719 80.316092,85.5555556 L73.8505747,79.0849673 L80.316092,72.6143791 C80.8908046,71.8954248 80.8908046,71.0326797 80.6034483,70.4575163 C80.0287356,70.0261438 79.0229885,70.0261438 78.591954,70.4575163 L72.1264368,76.9281046 L65.6609195,70.4575163 C65.0862069,69.8823529 64.0804598,69.8823529 63.5057471,70.4575163 C62.9310345,71.0326797 62.9310345,72.0392157 63.5057471,72.6143791 L69.9712644,79.0849673 L63.5057471,85.5555556 C62.9310345,86.130719 62.9310345,87.1372549 63.5057471,87.7124183 L63.6494253,87.8562092 C63.7931034,88 64.2241379,88.1437908 64.5114943,88.1437908 C64.6551724,88.2875817 65.0862069,88.1437908 65.3735632,87.7124183" id="Fill-5"></path>
                    <path d="M59.1954023,61.3986928 L59.3390805,61.3986928 C67.6724138,58.6666667 73.2758621,51.0457516 73.2758621,42.2745098 L73.2758621,33.0718954 L80.1724138,39.9738562 C80.316092,40.1176471 80.7471264,40.2614379 81.0344828,40.2614379 C81.3218391,40.2614379 81.6091954,40.1176471 82.0402299,39.8300654 C82.6149425,39.1111111 82.6149425,38.1045752 82.183908,37.6732026 L72.8448276,28.3267974 C72.7011494,28.0392157 72.4137931,28.0392157 71.9827586,28.0392157 C71.6954023,28.0392157 71.408046,28.1830065 70.9770115,28.4705882 L61.637931,37.8169935 C61.0632184,38.3921569 61.0632184,39.3986928 61.637931,39.9738562 L61.7816092,40.1176471 C61.9252874,40.2614379 62.3563218,40.5490196 62.6436782,40.5490196 C62.9310345,40.5490196 63.2183908,40.4052288 63.6494253,40.1176471 L70.4022989,33.3594771 L70.4022989,42.5620915 C70.4022989,50.0392157 65.6609195,56.5098039 58.6206897,58.8104575 C57.9022989,59.0980392 57.4712644,59.8169935 57.7586207,60.6797386 C58.045977,61.254902 58.4770115,61.6862745 59.1954023,61.6862745 C59.0517241,61.3986928 59.1954023,61.3986928 59.1954023,61.3986928" id="Fill-6"></path>
                    <path d="M10.0574713,107.699346 C15.0862069,107.699346 19.2528736,103.529412 19.2528736,98.496732 C19.2528736,93.4640523 15.0862069,89.2941176 10.0574713,89.2941176 C5.02873563,89.2941176 0.862068966,93.4640523 0.862068966,98.496732 C0.862068966,103.529412 5.02873563,107.699346 10.0574713,107.699346 L10.0574713,107.699346 Z M10.0574713,92.3137255 C13.5057471,92.3137255 16.3793103,95.1895425 16.3793103,98.6405229 C16.3793103,102.235294 13.6494253,104.96732 10.0574713,104.96732 C6.6091954,104.96732 3.73563218,102.091503 3.73563218,98.6405229 C3.73563218,95.1895425 6.75287356,92.3137255 10.0574713,92.3137255 L10.0574713,92.3137255 Z" id="Fill-7"></path>
                    <path d="M28.0172414,59.5294118 L27.7298851,59.8169935 C27.4425287,59.9607843 27.4425287,60.248366 27.4425287,60.6797386 C27.4425287,61.1111111 27.5862069,61.3986928 27.7298851,61.5424837 L28.0172414,61.8300654 C28.3045977,62.2614379 29.454023,62.2614379 29.7413793,61.8300654 L29.8850575,61.6862745 C30.0287356,61.5424837 30.1724138,61.1111111 30.316092,60.5359477 C30.316092,60.248366 30.1724138,59.9607843 30.0287356,59.8169935 L29.7413793,59.5294118 C29.5977011,59.2418301 29.3103448,59.2418301 28.8793103,59.2418301 C28.4482759,59.2418301 28.1609195,59.2418301 28.0172414,59.5294118" id="Fill-8"></path>
                    <path d="M9.05172414,78.2222222 L9.05172414,78.2222222 C8.76436782,78.5098039 8.62068966,78.7973856 8.62068966,79.2287582 C8.62068966,79.6601307 8.76436782,79.9477124 8.90804598,80.0915033 L9.05172414,80.2352941 C9.48275862,80.6666667 9.77011494,80.6666667 10.0574713,80.6666667 C10.3448276,80.6666667 10.7758621,80.5228758 11.0632184,80.2352941 L11.2068966,80.0915033 C11.4942529,79.9477124 11.4942529,79.6601307 11.4942529,79.2287582 C11.4942529,78.9411765 11.3505747,78.6535948 11.0632184,78.2222222 L10.9195402,78.0784314 C10.7758621,77.7908497 10.4885057,77.7908497 10.0574713,77.7908497 C9.77011494,77.6470588 9.33908046,77.9346405 9.05172414,78.2222222" id="Fill-9"></path>
                    <path d="M11.4942529,69.1633987 L11.4942529,69.1633987 C11.2068966,69.5947712 11.2068966,69.8823529 11.2068966,70.1699346 C11.3505747,70.4575163 11.4942529,70.745098 11.9252874,71.0326797 L12.0689655,71.1764706 C12.2126437,71.3202614 12.6436782,71.4640523 12.7873563,71.4640523 C13.2183908,71.4640523 13.7931034,71.1764706 14.0804598,70.745098 C14.3678161,70.1699346 14.2241379,69.1633987 13.5057471,68.7320261 C13.2183908,68.5882353 13.0747126,68.5882353 12.7873563,68.5882353 L12.3563218,68.5882353 C11.9252874,68.5882353 11.637931,68.875817 11.4942529,69.1633987" id="Fill-10"></path>
                    <path d="M47.1264368,59.5294118 L46.8390805,59.8169935 C46.5517241,59.9607843 46.5517241,60.248366 46.5517241,60.6797386 C46.5517241,61.1111111 46.6954023,61.3986928 46.8390805,61.5424837 L47.1264368,61.8300654 C47.2701149,62.1176471 47.5574713,62.2614379 47.9885057,62.2614379 C48.2758621,62.2614379 48.5632184,62.1176471 48.9942529,61.8300654 L49.137931,61.6862745 C49.4252874,61.5424837 49.4252874,61.254902 49.4252874,60.8235294 C49.4252874,60.5359477 49.2816092,60.1045752 48.9942529,59.8169935 L48.8505747,59.6732026 C48.7068966,59.3856209 48.4195402,59.3856209 47.9885057,59.3856209 C47.5574713,59.3856209 47.2701149,59.2418301 47.1264368,59.5294118" id="Fill-11"></path>
                    <path d="M31.4655172,101.803922 C31.6091954,101.947712 32.0402299,102.091503 32.3275862,102.091503 C32.6149425,102.091503 32.9022989,101.947712 33.3333333,101.660131 L39.7988506,95.1895425 L46.408046,101.803922 C46.5517241,101.947712 46.9827586,102.091503 47.2701149,102.091503 C47.5574713,102.091503 47.8448276,101.947712 48.2758621,101.660131 C48.8505747,101.084967 48.8505747,100.078431 48.2758621,99.503268 L41.8103448,93.0326797 L48.2758621,86.5620915 C48.9942529,85.8431373 48.9942529,84.9803922 48.5632184,84.4052288 C47.8448276,83.8300654 46.9827586,83.8300654 46.408046,84.4052288 L39.9425287,90.875817 L33.4770115,84.4052288 C32.9022989,83.8300654 31.8965517,83.8300654 31.3218391,84.4052288 C30.7471264,84.9803922 30.7471264,85.9869281 31.3218391,86.5620915 L37.7873563,93.0326797 L31.3218391,99.503268 C30.8908046,100.222222 30.8908046,101.228758 31.4655172,101.803922" id="Fill-12"></path>
                </g>
            </g>
        </g>
    </g>
</svg>