<?xml version="1.0" encoding="UTF-8" standalone="no"?>
<svg width="100px" height="100px" viewBox="0 0 100 100" version="1.1" xmlns="http://www.w3.org/2000/svg" xmlns:xlink="http://www.w3.org/1999/xlink" xmlns:sketch="http://www.bohemiancoding.com/sketch/ns">
    <!-- Generator: Sketch 3.3 (11970) - http://www.bohemiancoding.com/sketch -->
    <title>Artboard 1</title>
    <desc>Created with Sketch.</desc>
    <defs></defs>
    <g id="Page-1" stroke="none" stroke-width="1" fill="none" fill-rule="evenodd" sketch:type="MSPage">
        <g id="Artboard-1" sketch:type="MSArtboardGroup" fill="#000000">
            <g id="icon-hypothesize" sketch:type="MSLayerGroup" transform="translate(21.000000, 13.000000)">
                <g id="Page-1" sketch:type="MSShapeGroup">
                    <g id="2.-Approach">
                        <g id="Imported-Layers">
                            <g id="Group">
                                <path d="M13.6151379,41.7852 C13.5316034,41.7637867 13.448069,41.75308 13.3665,41.75308 C13.2181034,41.75308 13.0795345,41.7890933 12.9675,41.8582 C12.4712069,42.13268 12.3061034,42.7741067 12.5753793,43.2529867 C12.7060862,43.5440133 12.878069,43.78832 13.3959828,43.78832 C13.5158793,43.78832 13.6534655,43.7377067 13.8038276,43.6394 C14.3197759,43.3522667 14.4858621,42.71084 14.2165862,42.2309867 C14.0947241,42.0139333 13.875569,41.8513867 13.6151379,41.7852" id="Fill-1"></path>
                                <path d="M49.0701207,0.0369866667 C45.5882069,0.0369866667 42.7558966,2.84213333 42.7558966,6.29065333 C42.7558966,9.73917333 45.5882069,12.54432 49.0701207,12.54432 C52.5520345,12.54432 55.3833621,9.73917333 55.3833621,6.29065333 C55.3833621,2.84213333 52.5520345,0.0369866667 49.0701207,0.0369866667 L49.0701207,0.0369866667 L49.0701207,0.0369866667 Z M49.0701207,10.4516533 C46.74,10.4516533 44.7705517,8.50109333 44.7705517,6.19332 C44.7705517,3.88457333 46.74,1.93498667 49.0701207,1.93498667 C51.4002414,1.93498667 53.3696897,3.88457333 53.3696897,6.19332 C53.3696897,8.50109333 51.4002414,10.4516533 49.0701207,10.4516533 L49.0701207,10.4516533 L49.0701207,10.4516533 Z" id="Fill-2"></path>
                                <path d="M14.987069,19.8014933 L19.4271724,24.1999867 L14.987069,28.59848 C14.6352414,28.9994933 14.6175517,29.6564933 14.987069,30.0214933 L15.0666724,30.11396 C15.165931,30.2443867 15.4735345,30.35632 15.6563276,30.35632 C15.8155345,30.35632 16.0936552,30.2521733 16.3255862,30.0214933 L20.751931,25.6385733 L25.4839138,30.11396 C25.5831724,30.2443867 25.8907759,30.35632 26.073569,30.35632 C26.2327759,30.35632 26.5108966,30.2512 26.7438103,30.0214933 C27.0946552,29.6214533 27.1123448,28.96348 26.7428276,28.59848 L22.3017414,24.1999867 L26.7428276,19.8014933 C27.0946552,19.4014533 27.1123448,18.74348 26.7428276,18.37848 C26.3389138,18.0290533 25.674569,18.0115333 25.3060345,18.37848 L20.8649483,22.776 L16.4238621,18.37848 C16.0189655,18.0290533 15.3556034,18.0115333 14.987069,18.37848 C14.6352414,18.7794933 14.6175517,19.4364933 14.987069,19.8014933" id="Fill-3"></path>
                                <path d="M27.2774483,41.0386533 C27.2774483,40.53544 26.7782069,40.0409867 26.2701207,40.0409867 C25.6480345,40.0409867 25.2627931,40.5588 25.2627931,41.0386533 C25.2627931,41.6547733 25.7856207,42.03632 26.2701207,42.03632 C26.8922069,42.03632 27.2774483,41.5185067 27.2774483,41.0386533" id="Fill-4"></path>
                                <path d="M44.7273103,59.41616 L49.1683966,55.0176667 L53.6890862,59.5086267 C53.7873621,59.63808 54.0959483,59.7509867 54.2777586,59.7509867 C54.438931,59.7509867 54.7170517,59.6458667 54.948,59.41616 C55.2998276,59.01612 55.3165345,58.3581467 54.948,57.9921733 L50.5078966,53.5946533 L54.9253966,49.21952 C55.2958966,48.78152 55.3126034,48.1254933 55.1022931,47.7458933 C54.6620172,47.4246933 54.0546724,47.4276133 53.7077586,47.7721733 L49.2666724,52.17164 L44.8246034,47.7731467 C44.4197069,47.42372 43.7573276,47.4062 43.3887931,47.7721733 C43.0369655,48.1731867 43.0192759,48.83116 43.3887931,49.19616 L47.8288966,53.5946533 L43.3887931,57.9931467 C43.0369655,58.3931867 43.0192759,59.05116 43.3887931,59.41616 L43.4683966,59.5086267 C43.5676552,59.63808 43.8762414,59.7509867 44.0580517,59.7509867 C44.2182414,59.7509867 44.4953793,59.6458667 44.7273103,59.41616" id="Fill-5"></path>
                                <path d="M40.5328966,41.53992 L40.6488621,41.4932 C46.3468966,39.6730667 50.1757241,34.4832533 50.1757241,28.5799867 L50.1757241,22.3389733 L54.8683966,26.99832 C54.9676552,27.12972 55.2752586,27.2416533 55.4580517,27.2416533 C55.6133276,27.2416533 55.8786724,27.1433467 56.1066724,26.9272667 C56.5105862,26.4483867 56.4742241,25.7738667 56.1803793,25.4351467 L49.7580517,19.0656533 C49.6450345,18.91576 49.4180172,18.82232 49.1683966,18.82232 C49.0082069,18.82232 48.731069,18.92744 48.4981552,19.1571467 L42.1112069,25.4838133 C41.7593793,25.8838533 41.7426724,26.5418267 42.1112069,26.9078 L42.1898276,26.9973467 C42.2890862,27.12972 42.5986552,27.2416533 42.7804655,27.2416533 C42.9396724,27.2416533 43.2177931,27.1365333 43.4507069,26.9068267 L48.0627931,22.3389733 L48.0627931,28.5799867 C48.0627931,33.6199067 44.8226379,38.0524667 40.0002414,39.6098 C39.4803621,39.76456 39.2091207,40.33688 39.3771724,40.89168 C39.5265517,41.2761467 39.896069,41.5496533 40.323569,41.5496533 C40.3953103,41.5496533 40.502431,41.5496533 40.5328966,41.53992" id="Fill-6"></path>
                                <path d="M6.90977586,72.8909867 C10.3916897,72.8909867 13.224,70.08584 13.224,66.63732 C13.224,63.1888 10.3916897,60.3836533 6.90977586,60.3836533 C3.42786207,60.3836533 0.595551724,63.1888 0.595551724,66.63732 C0.595551724,70.08584 3.42786207,72.8909867 6.90977586,72.8909867 L6.90977586,72.8909867 L6.90977586,72.8909867 Z M6.90977586,62.47632 C9.23989655,62.47632 11.2093448,64.42688 11.2093448,66.7346533 C11.2093448,69.1232133 9.32048276,70.9929867 6.90977586,70.9929867 C4.57867241,70.9929867 2.6102069,69.0434 2.6102069,66.7346533 C2.6102069,64.42688 4.57867241,62.47632 6.90977586,62.47632 L6.90977586,62.47632 L6.90977586,62.47632 Z" id="Fill-7"></path>
                                <path d="M19.1942586,40.28432 L19.0212931,40.4546533 C18.870931,40.56756 18.7765862,40.7914267 18.7765862,41.0386533 C18.7765862,41.2868533 18.870931,41.5097467 19.0212931,41.6226533 L19.1942586,41.7929867 C19.4222586,42.0937467 20.145569,42.0937467 20.3725862,41.7929867 L20.4531724,41.7014933 C20.5534138,41.6022133 20.6968966,41.3520667 20.7882931,40.96176 C20.7706034,40.74568 20.6811724,40.55588 20.5455517,40.4546533 L20.3725862,40.28432 C20.259569,40.1344267 20.0335345,40.0409867 19.7839138,40.0409867 C19.5333103,40.0409867 19.3072759,40.1344267 19.1942586,40.28432" id="Fill-8"></path>
                                <path d="M6.24051724,52.9318133 L6.14912069,53.00968 C5.9967931,53.1225867 5.90244828,53.3474267 5.90244828,53.5946533 C5.90244828,53.84188 5.9967931,54.06672 6.14813793,54.1786533 L6.23953448,54.2574933 C6.52060345,54.5348933 6.71027586,54.59232 6.90977586,54.59232 C7.09846552,54.59232 7.38739655,54.4482667 7.58001724,54.2574933 L7.67141379,54.1786533 C7.82275862,54.06672 7.91710345,53.8428533 7.91710345,53.5946533 C7.91710345,53.3970667 7.85912069,53.2092133 7.57903448,52.93084 L7.50041379,52.84032 C7.38641379,52.6904267 7.15939655,52.5969867 6.90977586,52.5969867 C6.72010345,52.5969867 6.43215517,52.7400667 6.24051724,52.9318133" id="Fill-9"></path>
                                <path d="M7.85813793,46.8056533 L7.82177586,46.8640533 C7.67632759,47.0801333 7.63013793,47.30692 7.68713793,47.5191067 C7.74708621,47.7429733 7.92103448,47.9366667 8.17851724,48.0641733 L8.27089655,48.1167333 C8.41732759,48.2130933 8.64041379,48.2656533 8.77701724,48.2656533 C9.10918966,48.2656533 9.4217069,48.0846133 9.63398276,47.7692533 C9.86689655,47.3487733 9.7017931,46.7063733 9.24382759,46.4552533 C9.0915,46.3715467 8.91460345,46.3277467 8.73574138,46.3277467 C8.64237931,46.3277467 8.54705172,46.3394267 8.45565517,46.36376 C8.1912931,46.4328667 7.97901724,46.5895733 7.85813793,46.8056533" id="Fill-10"></path>
                                <path d="M32.2649483,40.28432 L32.0929655,40.4546533 C31.9416207,40.5665867 31.8472759,40.7904533 31.8472759,41.0386533 C31.8472759,41.2868533 31.9416207,41.5097467 32.0919828,41.6226533 L32.2649483,41.7929867 C32.3779655,41.94288 32.6049828,42.03632 32.8546034,42.03632 C33.0531207,42.03632 33.2427931,41.9798667 33.5228793,41.7024667 L33.6162414,41.6226533 C33.7675862,41.5097467 33.861931,41.2868533 33.861931,41.0386533 C33.861931,40.8517733 33.7174655,40.5665867 33.5238621,40.3758133 L33.4432759,40.28432 C33.3302586,40.1344267 33.1052069,40.0409867 32.8546034,40.0409867 C32.604,40.0409867 32.3779655,40.1344267 32.2649483,40.28432" id="Fill-11"></path>
                                <path d="M21.5528793,68.9489867 C21.6521379,69.0803867 21.9597414,69.19232 22.1425345,69.19232 C22.3017414,69.19232 22.5798621,69.0872 22.8127759,68.8574933 L27.2528793,64.4599733 L31.773569,68.9489867 C31.8728276,69.0803867 32.180431,69.19232 32.3632241,69.19232 C32.5234138,69.19232 32.8005517,69.0872 33.0315,68.8574933 C33.3843103,68.4574533 33.4010172,67.79948 33.0315,67.43448 L28.5923793,63.0359867 L33.0324828,58.6374933 C33.4865172,58.1878133 33.4816034,57.56488 33.2211724,57.21156 C32.7759828,56.86408 32.1470172,56.86116 31.7922414,57.21448 L27.3511552,61.6129733 L22.910069,57.21448 C22.5051724,56.8650533 21.8408276,56.8485067 21.4732759,57.2135067 C21.1214483,57.61452 21.1037586,58.2724933 21.4732759,58.6374933 L25.9133793,63.0359867 L21.4732759,67.43448 C21.1214483,67.83452 21.1037586,68.4924933 21.4732759,68.8574933 L21.5528793,68.9489867" id="Fill-12"></path>
                            </g>
                        </g>
                    </g>
                </g>
            </g>
        </g>
    </g>
</svg>