<?xml version="1.0" encoding="UTF-8" standalone="no"?>
<svg width="168px" height="168px" viewBox="0 0 168 168" version="1.1" xmlns="http://www.w3.org/2000/svg" xmlns:xlink="http://www.w3.org/1999/xlink" xmlns:sketch="http://www.bohemiancoding.com/sketch/ns">
    <!-- Generator: Sketch 3.3 (11970) - http://www.bohemiancoding.com/sketch -->
    <title>Artboard 1 Copy</title>
    <desc>Created with Sketch.</desc>
    <defs></defs>
    <g id="Page-1" stroke="none" stroke-width="1" fill="none" fill-rule="evenodd" sketch:type="MSPage">
        <g id="Artboard-1-Copy" sketch:type="MSArtboardGroup" fill="#C31618">
            <g id="Imported-Layers" sketch:type="MSLayerGroup" transform="translate(35.537829, 32.125000)">
                <path d="M0,75.3375164 C0,79.9366447 3.73773026,83.674375 8.33412829,83.674375 C11.1203618,83.674375 13.5898849,82.3010526 15.1010855,80.1973849 L39.8659375,92.6228125 C39.612023,93.4200493 39.4741447,94.2677961 39.4741447,95.1483059 C39.4741447,99.7419737 43.2146053,103.482434 47.8110033,103.482434 C52.4046711,103.482434 56.1451316,99.7419737 56.1451316,95.1483059 C56.1451316,94.2677961 56.0058882,93.4200493 55.7533388,92.6228125 L80.5181908,80.1973849 C82.0293914,82.3010526 84.5016447,83.674375 87.285148,83.674375 C91.8815461,83.674375 95.6220066,79.9366447 95.6220066,75.3402467 C95.6220066,71.1861513 92.5723026,67.7364638 88.5943092,67.1098684 L88.5943092,36.3752961 C92.5723026,35.7487007 95.6220066,32.2962829 95.6220066,28.1449178 C95.6220066,23.5457895 91.8815461,19.8053289 87.285148,19.8053289 C84.5016447,19.8053289 82.0293914,21.1786513 80.5181908,23.2850493 L55.7533388,10.8568914 C56.0072533,10.0623849 56.1451316,9.21463816 56.1451316,8.33412829 C56.1451316,3.735 52.4046711,0 47.8110033,0 C43.2146053,0 39.4741447,3.735 39.4741447,8.33412829 C39.4741447,9.21463816 39.6133882,10.0623849 39.8659375,10.8568914 L15.1010855,23.2850493 C13.5898849,21.1786513 11.1203618,19.8053289 8.33412829,19.8053289 C3.73773026,19.8053289 0,23.5457895 0,28.1449178 C0,32.2962829 3.04697368,35.7487007 7.02769737,36.3752961 L7.02769737,67.1071382 C3.04697368,67.7337336 0,71.1861513 0,75.3375164 L0,75.3375164 Z M16.2819243,77.8657401 C16.5331086,77.065773 16.6682566,76.2180263 16.6682566,75.3375164 C16.6682566,71.1861513 13.6212829,67.7337336 9.64055921,67.1071382 L9.64055921,36.3752961 C11.8862007,36.0203618 13.8342434,34.7699013 15.1010855,33.0020559 L39.8659375,45.4274836 C39.612023,46.2247204 39.4741447,47.0751974 39.4741447,47.952977 C39.4741447,52.1070724 42.5293092,55.5567599 46.5045724,56.1833553 L46.5045724,86.9179276 C44.2643914,87.2701316 42.3163487,88.5233224 41.0413158,90.2911678 L16.2819243,77.8657401 L16.2819243,77.8657401 Z M43.419375,44.2889638 C44.4705263,43.0303125 46.0486184,42.2276151 47.8110033,42.2276151 C49.5733882,42.2276151 51.1514803,43.0303125 52.1999013,44.2889638 C52.7596053,44.9524178 53.1677796,45.7496546 53.3752796,46.6192434 L53.3752796,46.6219737 C53.4817599,47.0492599 53.5322697,47.4915625 53.5322697,47.952977 C53.5322697,50.6586678 51.6442928,52.9302467 49.1174342,53.5199836 C48.6928783,53.6237336 48.2587664,53.6742434 47.8110033,53.6742434 C47.3632401,53.6742434 46.926398,53.6237336 46.5045724,53.5199836 C43.9763487,52.9302467 42.0870066,50.6586678 42.0870066,47.952977 C42.0870066,47.4915625 42.1402467,47.0492599 42.2439967,46.6219737 L42.2439967,46.6192434 C42.454227,45.7496546 42.8596711,44.9524178 43.419375,44.2889638 L43.419375,44.2889638 Z M54.5779605,90.2898026 C53.3056579,88.5219572 51.3576151,87.2687664 49.1174342,86.9165625 L49.1174342,56.1833553 C53.0926974,55.5567599 56.1451316,52.1070724 56.1451316,47.952977 C56.1451316,47.0751974 56.0058882,46.2247204 55.7533388,45.4274836 L80.5181908,33.0020559 C81.7877632,34.7699013 83.7358059,36.0203618 85.9787171,36.3752961 L85.9787171,67.1098684 C82.0007237,67.7364638 78.9510197,71.1861513 78.9510197,75.3402467 C78.9510197,76.2207566 79.0902632,77.0685033 79.3400822,77.8657401 L54.5779605,90.2898026 L54.5779605,90.2898026 Z M87.285148,22.4181908 C90.4399671,22.4181908 93.0091447,24.9887336 93.0091447,28.1449178 C93.0091447,30.8506086 91.1184375,33.1249178 88.5943092,33.7173849 C88.1752138,33.8156743 87.7329112,33.8661842 87.285148,33.8661842 C86.8401151,33.8661842 86.3978125,33.8156743 85.9787171,33.7173849 C84.7555592,33.4293421 83.6771053,32.7467763 82.89625,31.8089309 C82.3365461,31.1427467 81.9283717,30.3482401 81.7208717,29.4759211 C81.6171217,29.0486349 81.5638816,28.603602 81.5638816,28.1449178 C81.5638816,27.6862336 81.619852,27.2384704 81.7208717,26.8111842 C81.9283717,25.9388651 82.3365461,25.1416283 82.89625,24.4781743 C83.9474013,23.219523 85.5254934,22.4181908 87.285148,22.4181908 L87.285148,22.4181908 Z M42.0870066,8.33412829 C42.0870066,5.17521382 44.6575493,2.61286184 47.8110033,2.61286184 C50.9644572,2.61286184 53.5322697,5.17521382 53.5322697,8.33412829 C53.5322697,8.79008224 53.4817599,9.23784539 53.3752796,9.66240132 C53.1677796,10.5374507 52.7596053,11.3319572 52.1999013,11.9954112 C51.1514803,13.2540625 49.5733882,14.0567599 47.8110033,14.0567599 C46.0486184,14.0567599 44.4705263,13.2540625 43.419375,11.9954112 C42.8596711,11.3319572 42.454227,10.5374507 42.2439967,9.66240132 C42.1402467,9.23784539 42.0870066,8.79008224 42.0870066,8.33412829 L42.0870066,8.33412829 Z M41.0413158,13.1899013 C42.5552467,15.2962993 45.0247697,16.6696217 47.8110033,16.6696217 C50.5945066,16.6696217 53.0667599,15.2962993 54.5779605,13.1899013 L79.3400822,25.6180592 C79.088898,26.4180263 78.9510197,27.265773 78.9510197,28.1462829 C78.9510197,29.0240625 79.0902632,29.8745395 79.3400822,30.6717763 L54.5779605,43.0972039 L54.5752303,43.0972039 C53.0667599,40.9935362 50.5945066,39.6202138 47.8110033,39.6202138 C45.0247697,39.6202138 42.5552467,40.9935362 41.0467763,43.0972039 L41.0413158,43.0972039 L16.2819243,30.6717763 C16.5331086,29.8745395 16.6682566,29.0240625 16.6682566,28.1462829 C16.6682566,27.265773 16.5317434,26.4180263 16.2819243,25.6180592 L41.0413158,13.1899013 L41.0413158,13.1899013 Z M2.61286184,28.1449178 C2.61286184,24.9873684 5.18067434,22.4181908 8.33412829,22.4181908 C10.0965132,22.4181908 11.6746053,23.2208882 12.7230263,24.4795395 C13.2854605,25.1429934 13.6909046,25.9402303 13.8984046,26.8125493 C13.9994243,27.2398355 14.0553947,27.6875987 14.0553947,28.1462829 C14.0553947,28.6049671 14.0048849,29.05 13.8984046,29.4772862 C13.6909046,30.3496053 13.2854605,31.1441118 12.7230263,31.8102961 C11.9449013,32.7495066 10.8650822,33.4320724 9.64055921,33.71875 C9.22146382,33.8170395 8.78189145,33.8675493 8.33412829,33.8675493 C7.88636513,33.8675493 7.44679276,33.8170395 7.02769737,33.71875 C4.49947368,33.1249178 2.61286184,30.8506086 2.61286184,28.1449178 L2.61286184,28.1449178 Z" sketch:type="MSShapeGroup"></path>
            </g>
        </g>
    </g>
</svg>