<?xml version="1.0" encoding="UTF-8" standalone="no"?>
<svg width="297px" height="277px" viewBox="0 0 297 277" version="1.1" xmlns="http://www.w3.org/2000/svg" xmlns:xlink="http://www.w3.org/1999/xlink" xmlns:sketch="http://www.bohemiancoding.com/sketch/ns">
    <!-- Generator: Sketch 3.3 (11970) - http://www.bohemiancoding.com/sketch -->
    <title>Imported Layers Copy</title>
    <desc>Created with Sketch.</desc>
    <defs></defs>
    <g id="Page-1" stroke="none" stroke-width="1" fill="none" fill-rule="evenodd" sketch:type="MSPage">
        <g id="2.-Approach" sketch:type="MSArtboardGroup" transform="translate(-372.000000, -848.000000)" fill="#FFFFFF">
            <g id="Imported-Layers-Copy" sketch:type="MSLayerGroup" transform="translate(371.000000, 847.000000)">
                <path d="M174.136199,70.6534286 L174.136199,62.6255357 L179.827728,62.6255357 C181.376626,62.6255357 182.788659,61.8416786 183.599827,60.5297143 C184.404319,59.2376786 184.504463,57.6433929 183.860202,56.3779286 L175.691772,37.9240714 C175.53488,31.8425357 174.480027,26.5249286 172.550582,22.1140714 C172.263502,21.4298571 171.585859,19.9385357 171.005023,19.0483929 C169.459464,16.4145 167.550047,14.1492857 165.290126,12.2461071 C157.702533,5.05853571 147.865032,1.13925 137.520135,1.13925 C115.354881,1.13925 97.3255837,19.0782857 97.3255837,41.1325714 C97.3255837,53.4916071 102.626551,66.774 110.521253,74.1841071 L111.045341,74.6756786 L111.045341,107.916536 L158.597154,107.916536 L158.600492,87.8683929 L159.965792,87.6159643 C168.177618,86.1047143 174.136199,78.9669643 174.136199,70.6534286 L174.136199,70.6534286 Z M156.794558,84.3177857 L154.991962,84.3177857 L154.991962,104.329393 L114.653871,104.329393 L114.653871,73.005 L114.012948,72.47025 C106.435369,66.1429286 100.934114,52.9601786 100.934114,41.12925 C100.934114,21.0545357 117.347751,4.72639286 137.520135,4.72639286 C146.973749,4.72639286 155.950009,8.32017857 162.796535,14.8467857 C164.882873,16.5938571 166.568634,18.5933571 167.890538,20.8685357 C168.341187,21.5394643 168.932037,22.8148929 169.235808,23.529 C171.051757,27.69075 172.019818,32.7924643 172.099933,38.6780357 L172.106609,39.0500357 L181.109574,59.0350714 L170.527669,59.0350714 L170.527669,70.6534286 C170.527669,78.1864286 164.368799,84.3177857 156.794558,84.3177857 L156.794558,84.3177857 Z" id="Fill-1" sketch:type="MSShapeGroup"></path>
                <path d="M137.139586,171.080143 C126.784674,171.080143 116.950512,175.00275 109.443034,182.120571 C107.113012,184.090179 105.200257,186.355393 103.694756,188.922857 C103.140625,189.776464 102.523069,191.081786 102.115815,192.041679 C100.179694,196.465821 99.1248415,201.78675 98.9679488,207.864964 L98.8210707,208.499357 L90.8295621,226.24575 C90.1585958,227.590929 90.2554019,229.181893 91.0565556,230.473929 C91.871062,231.782571 93.2797573,232.566429 94.8319927,232.566429 L100.52686,232.566429 L100.52686,240.600964 C100.52686,248.911179 106.485441,256.048929 114.697267,257.5635 L116.062567,257.812607 L116.062567,277.857429 L163.61438,277.857429 L163.61438,244.616571 L164.138468,244.128321 C172.029832,236.718214 177.334137,223.435821 177.334137,211.073464 C177.334137,189.019179 159.30484,171.080143 137.139586,171.080143 L137.139586,171.080143 Z M160.650111,242.414464 L160.009188,242.952536 L160.009188,274.276929 L119.671097,274.276929 L119.671097,254.265321 L117.868501,254.265321 C110.29426,254.265321 104.13539,248.137286 104.13539,240.604286 L104.13539,228.982607 L93.5534848,228.982607 L102.563126,208.628893 C102.64658,202.730036 103.611302,197.628321 105.433927,193.46325 C105.727684,192.76575 106.318534,191.490321 106.709097,190.912393 C108.101101,188.537571 109.783524,186.538071 111.779732,184.874036 C118.71305,178.267714 127.68931,174.673929 137.142925,174.673929 C157.315308,174.673929 173.728945,191.005393 173.728945,211.076786 C173.728945,222.907714 168.231028,236.090464 160.650111,242.414464 L160.650111,242.414464 Z" id="Fill-2" sketch:type="MSShapeGroup"></path>
                <path d="M79.5166036,124.546929 C79.359711,118.468714 78.3048586,113.147786 76.3787515,108.736929 C76.1450816,108.185571 75.4373958,106.604571 74.8298542,105.667929 C73.2842951,103.040679 71.3748787,100.772143 69.1149576,98.8656429 C61.527364,91.6847143 51.6898637,87.7621071 41.344966,87.7621071 C19.1797125,87.7621071 1.15041515,105.701143 1.15041515,127.755429 C1.15041515,140.114464 6.4513824,153.400179 14.3460849,160.806964 L14.870173,161.298536 L14.870173,194.539393 L62.4219857,194.539393 L62.4219857,174.49125 L63.7872852,174.242143 C71.999111,172.72425 77.957692,165.593143 77.957692,157.276286 L77.957692,149.248393 L83.6525598,149.248393 C85.2014571,149.248393 86.6134905,148.464536 87.4279968,147.152571 C88.2291506,145.860536 88.3292948,144.26625 87.6883718,142.997464 L79.5166036,124.546929 L79.5166036,124.546929 Z M74.349162,145.654607 L74.349162,157.272964 C74.349162,164.809286 68.1869545,170.937321 60.6160516,170.937321 L58.8134557,170.937321 L58.8134557,190.948929 L18.4753648,190.948929 L18.4753648,159.627857 L17.8311037,159.089786 C10.2568627,152.759143 4.75560698,139.579714 4.75560698,127.748786 C4.75560698,107.677393 21.1692443,91.3459286 41.3416278,91.3459286 C50.795242,91.3459286 59.771502,94.9397143 66.6180284,101.466321 C68.69769,103.20675 70.3801128,105.202929 71.7120309,107.481429 C72.1593418,108.159 72.7535308,109.431107 73.0573016,110.148536 C74.8732501,114.306964 75.8379727,119.408679 75.9214262,125.297571 L75.9247644,125.66625 L84.9310677,145.654607 L74.349162,145.654607 L74.349162,145.654607 Z" id="Fill-3" sketch:type="MSShapeGroup"></path>
                <path d="M33.5470696,217.928893 L33.7173147,219.416893 C35.2027873,232.513286 46.7193723,242.773179 59.9350709,242.773179 L84.0397841,242.773179 L84.0397841,234.001286 L59.9384091,234.001286 C51.5763669,234.001286 44.3259255,228.045964 42.6935748,219.842036 L42.3030123,217.87575 L52.4709886,217.812643 L37.9600914,203.55375 L23.6227776,217.992 L33.5470696,217.928893" id="Fill-4" sketch:type="MSShapeGroup"></path>
                <path d="M239.403523,216.507321 L239.403523,202.869536 L230.587494,202.869536 L230.587494,216.504 C230.587494,226.15275 222.699468,234.001286 213.00217,234.001286 L198.170811,234.001286 L198.170811,224.033679 L183.750044,238.388893 L198.170811,252.740786 L198.170811,242.773179 L213.00217,242.773179 C227.559801,242.773179 239.403523,230.98875 239.403523,216.507321" id="Fill-5" sketch:type="MSShapeGroup"></path>
                <path d="M249.421283,64.9771071 L239.4102,64.9771071 L239.356789,63.3695357 C238.899464,49.1106429 227.322793,37.9406786 213.00217,37.9406786 L191.22414,37.9406786 L191.22414,46.7125714 L213.00217,46.7125714 C222.315582,46.7125714 230.02001,53.9665714 230.54076,63.2233929 L230.640904,64.9771071 L220.569734,64.9771071 L234.99384,79.3256786 L249.421283,64.9771071" id="Fill-6" sketch:type="MSShapeGroup"></path>
                <path d="M59.9384091,46.7125714 L68.9280217,46.7125714 L68.9280217,56.6801786 L83.348789,42.3282857 L68.9280217,27.9730714 L68.9280217,37.9406786 L59.9384091,37.9406786 C45.380778,37.9406786 33.5370551,49.7251071 33.5370551,64.2098571 L33.5370551,80.0132143 L42.3530844,80.0132143 L42.3530844,64.2098571 C42.3530844,54.5611071 50.2411107,46.7125714 59.9384091,46.7125714" id="Fill-7" sketch:type="MSShapeGroup"></path>
                <path d="M208.35214,173.943214 L209.717439,174.195643 L209.717439,194.243786 L257.269252,194.243786 L257.269252,172.020107 L253.660722,172.020107 L253.660722,190.656643 L213.322631,190.656643 L213.322631,170.645036 L211.520035,170.645036 C203.945794,170.645036 197.786925,164.517 197.786925,156.980679 L197.786925,145.362321 L187.201681,145.362321 L196.21466,125.005286 C196.298114,119.119714 197.262837,114.018 199.082123,109.842964 C199.345836,109.231821 199.956716,107.896607 200.360631,107.292107 C201.752636,104.913964 203.435059,102.914464 205.42459,101.25375 C212.361247,94.6474286 221.337507,91.0536429 230.791121,91.0536429 C240.745456,91.0536429 250.349286,95.1821786 257.259237,102.402964 L262.089527,102.402964 C254.475228,92.9966786 242.998701,87.4665 230.794459,87.4665 C220.446223,87.4665 210.612061,91.3891071 203.101245,98.5069286 C200.774561,100.469893 198.865144,102.738429 197.349628,105.309214 C196.698691,106.318929 195.994343,107.889964 195.777364,108.418071 C193.841243,112.8555 192.783052,118.173107 192.626159,124.251321 L192.479281,124.889036 L184.487773,142.632107 C183.813468,143.970643 183.913612,145.564929 184.718104,146.856964 C185.529272,148.168929 186.937968,148.952786 188.486865,148.952786 L194.181733,148.952786 L194.181733,156.980679 C194.181733,165.297536 200.140314,172.431964 208.35214,173.943214" id="Fill-8" sketch:type="MSShapeGroup"></path>
                <path d="M296.906333,107.88 L297.276867,102.7185 L257.002201,140.376857 L249.574838,122.03925 L241.8871,128.369893 L252.746071,153.871821 L296.906333,107.88" id="Fill-9" sketch:type="MSShapeGroup"></path>
                <path d="M228.594624,166.217571 L286.831825,166.217571 L286.831825,125.15475 L282.899495,129.250071 L282.899495,162.304929 L232.526954,162.304929 L232.526954,112.184571 L280.272379,112.184571 L284.458407,108.271929 L228.594624,108.271929 L228.594624,166.217571" id="Fill-10" sketch:type="MSShapeGroup"></path>
            </g>
        </g>
    </g>
</svg>