<?xml version="1.0" encoding="UTF-8" standalone="no"?>
<svg width="100px" height="100px" viewBox="0 0 100 100" version="1.1" xmlns="http://www.w3.org/2000/svg" xmlns:xlink="http://www.w3.org/1999/xlink" xmlns:sketch="http://www.bohemiancoding.com/sketch/ns">
    <!-- Generator: Sketch 3.3 (11970) - http://www.bohemiancoding.com/sketch -->
    <title>Artboard 1</title>
    <desc>Created with Sketch.</desc>
    <defs></defs>
    <g id="Page-1" stroke="none" stroke-width="1" fill="none" fill-rule="evenodd" sketch:type="MSPage">
        <g id="Artboard-1" sketch:type="MSArtboardGroup" fill="#000000">
            <g id="icon-learn" sketch:type="MSLayerGroup" transform="translate(11.000000, 11.000000)">
                <g id="Page-1" sketch:type="MSShapeGroup">
                    <g id="2.-Approach">
                        <g id="Imported-Layers">
                            <path d="M24.5777778,12.9911111 C22.7344444,14.8344444 22.7344444,17.6433333 24.3144444,19.5744444 L19.6622222,24.2266667 C17.7311111,22.6466667 14.9222222,22.7344444 13.0788889,24.49 C11.2355556,26.3333333 11.2355556,29.1422222 12.8155556,31.0733333 L8.16333333,35.7255556 C6.14444444,34.1455556 3.24777778,34.2333333 1.49222222,36.0766667 C-0.438888889,38.0077778 -0.438888889,41.08 1.49222222,43.0111111 C3.33555556,44.8544444 6.14444444,44.8544444 8.07555556,43.2744444 L12.7277778,47.9266667 C11.1477778,49.8577778 11.2355556,52.6666667 12.9911111,54.51 C14.9222222,56.4411111 17.9944444,56.4411111 19.9255556,54.51 C21.8566667,52.5788889 21.8566667,49.5066667 19.9255556,47.5755556 C18.0822222,45.7322222 15.2733333,45.7322222 13.3422222,47.3122222 L8.69,42.66 C10.1822222,40.8166667 10.1822222,38.2711111 8.69,36.4277778 L13.3422222,31.7755556 C15.2733333,33.3555556 18.0822222,33.2677778 19.9255556,31.5122222 C21.7688889,29.6688889 21.7688889,26.86 20.1888889,24.9288889 L24.8411111,20.2766667 C26.7722222,21.8566667 29.5811111,21.7688889 31.4244444,20.0133333 C33.3555556,18.0822222 33.3555556,15.01 31.4244444,13.0788889 C29.5811111,11.06 26.4211111,11.06 24.5777778,12.9911111" id="Fill-1"></path>
                            <path d="M39.5,9.83111111 C40.7288889,9.83111111 42.0455556,9.39222222 42.9233333,8.42666667 C44.8544444,6.49555556 44.8544444,3.42333333 42.9233333,1.49222222 C42.0455556,0.526666667 40.8166667,0 39.5,0 C38.2711111,0 36.9544444,0.438888889 36.0766667,1.40444444 C34.1455556,3.33555556 34.1455556,6.40777778 36.0766667,8.33888889 C37.0422222,9.30444444 38.2711111,9.83111111 39.5,9.83111111 L39.5,9.83111111 L39.5,9.83111111 Z M36.6911111,2.10666667 C37.4811111,1.31666667 38.4466667,0.877777778 39.5,0.877777778 C40.5533333,0.877777778 41.6066667,1.31666667 42.3088889,2.01888889 C43.8888889,3.59888889 43.8888889,6.14444444 42.3088889,7.72444444 C41.5188889,8.51444444 40.5533333,8.86555556 39.5,8.86555556 C38.4466667,8.86555556 37.3933333,8.42666667 36.6911111,7.72444444 C35.9888889,7.02222222 35.55,5.96888889 35.55,4.91555556 C35.55,3.86222222 35.9011111,2.80888889 36.6911111,2.10666667 L36.6911111,2.10666667 L36.6911111,2.10666667 Z" id="Fill-2"></path>
                            <path d="M28.0011111,34.5844444 C26.7722222,34.5844444 25.4555556,35.0233333 24.5777778,35.9888889 C22.6466667,37.92 22.6466667,40.9922222 24.5777778,42.9233333 C25.5433333,43.8888889 26.7722222,44.3277778 28.0011111,44.3277778 C29.23,44.3277778 30.5466667,43.8888889 31.4244444,42.9233333 C33.3555556,40.9922222 33.3555556,37.92 31.4244444,35.9888889 C30.4588889,35.1111111 29.23,34.5844444 28.0011111,34.5844444 L28.0011111,34.5844444 L28.0011111,34.5844444 Z M30.81,42.3088889 C30.02,43.0988889 29.0544444,43.45 28.0011111,43.45 C26.9477778,43.45 25.8944444,43.0111111 25.1922222,42.3088889 C24.49,41.6066667 24.0511111,40.5533333 24.0511111,39.5 C24.0511111,38.4466667 24.49,37.3933333 25.1922222,36.6911111 C25.9822222,35.9011111 26.9477778,35.55 28.0011111,35.55 C29.0544444,35.55 30.1077778,35.9888889 30.81,36.6911111 C32.39,38.2711111 32.39,40.8166667 30.81,42.3088889 L30.81,42.3088889 L30.81,42.3088889 Z" id="Fill-3"></path>
                            <path d="M39.5,32.8288889 C40.7288889,32.8288889 42.0455556,32.39 42.9233333,31.4244444 C44.8544444,29.4933333 44.8544444,26.4211111 42.9233333,24.49 C41.9577778,23.5244444 40.7288889,23.0855556 39.5,23.0855556 C38.2711111,23.0855556 36.9544444,23.5244444 36.0766667,24.49 C34.1455556,26.4211111 34.1455556,29.4933333 36.0766667,31.4244444 C37.0422222,32.39 38.2711111,32.8288889 39.5,32.8288889 L39.5,32.8288889 L39.5,32.8288889 Z M36.6911111,25.1044444 C37.4811111,24.3144444 38.4466667,23.9633333 39.5,23.9633333 C40.5533333,23.9633333 41.6066667,24.4022222 42.3088889,25.1044444 C43.0111111,25.8066667 43.45,26.86 43.45,27.9133333 C43.45,28.9666667 43.0111111,30.02 42.3088889,30.7222222 C41.5188889,31.5122222 40.5533333,31.8633333 39.5,31.8633333 C38.4466667,31.8633333 37.3933333,31.4244444 36.6911111,30.7222222 C35.1111111,29.23 35.1111111,26.6844444 36.6911111,25.1044444 L36.6911111,25.1044444 L36.6911111,25.1044444 Z" id="Fill-4"></path>
                            <path d="M28.0011111,57.67 C26.7722222,57.67 25.4555556,58.1088889 24.5777778,59.0744444 C22.6466667,61.0055556 22.6466667,64.0777778 24.5777778,66.0088889 C25.5433333,66.9744444 26.7722222,67.4133333 28.0011111,67.4133333 C29.23,67.4133333 30.5466667,66.9744444 31.4244444,66.0088889 C33.3555556,64.0777778 33.3555556,61.0055556 31.4244444,59.0744444 C30.4588889,58.1088889 29.23,57.67 28.0011111,57.67 L28.0011111,57.67 L28.0011111,57.67 Z M30.81,65.3944444 C30.02,66.1844444 29.0544444,66.5355556 28.0011111,66.5355556 C26.9477778,66.5355556 25.8944444,66.0966667 25.1922222,65.3944444 C23.6122222,63.8144444 23.6122222,61.2688889 25.1922222,59.6888889 C25.9822222,58.8988889 26.9477778,58.5477778 28.0011111,58.5477778 C29.0544444,58.5477778 30.1077778,58.9866667 30.81,59.6888889 C31.5122222,60.3911111 31.9511111,61.4444444 31.9511111,62.4977778 C31.9511111,63.5511111 31.6,64.6044444 30.81,65.3944444 L30.81,65.3944444 L30.81,65.3944444 Z" id="Fill-5"></path>
                            <path d="M50.9988889,34.5844444 C49.77,34.5844444 48.4533333,35.0233333 47.5755556,35.9888889 C45.6444444,37.92 45.6444444,40.9922222 47.5755556,42.9233333 C48.5411111,43.8888889 49.77,44.3277778 50.9988889,44.3277778 C52.2277778,44.3277778 53.5444444,43.8888889 54.4222222,42.9233333 C56.3533333,40.9922222 56.3533333,37.92 54.4222222,35.9888889 C53.5444444,35.1111111 52.3155556,34.5844444 50.9988889,34.5844444 L50.9988889,34.5844444 L50.9988889,34.5844444 Z M53.8955556,42.3088889 C53.1055556,43.0988889 52.14,43.45 51.0866667,43.45 C50.0333333,43.45 48.98,43.0111111 48.2777778,42.3088889 C47.5755556,41.6066667 47.1366667,40.5533333 47.1366667,39.5 C47.1366667,38.4466667 47.5755556,37.3933333 48.2777778,36.6911111 C48.98,35.9888889 50.0333333,35.55 51.0866667,35.55 C52.14,35.55 53.1933333,35.9888889 53.8955556,36.6911111 C54.5977778,37.3933333 55.0366667,38.4466667 55.0366667,39.5 C55.0366667,40.5533333 54.5977778,41.6066667 53.8955556,42.3088889 L53.8955556,42.3088889 L53.8955556,42.3088889 Z" id="Fill-6"></path>
                            <path d="M59.4255556,24.2266667 L54.7733333,19.5744444 C56.3533333,17.6433333 56.2655556,14.8344444 54.51,12.9911111 C52.5788889,11.06 49.5066667,11.06 47.5755556,12.9911111 C45.6444444,14.9222222 45.6444444,17.9944444 47.5755556,19.9255556 C49.4188889,21.7688889 52.2277778,21.7688889 54.1588889,20.1888889 L58.8111111,24.8411111 C57.2311111,26.7722222 57.3188889,29.5811111 59.0744444,31.4244444 C61.0055556,33.3555556 64.0777778,33.3555556 66.0088889,31.4244444 C67.94,29.4933333 67.94,26.4211111 66.0088889,24.49 C64.2533333,22.7344444 61.3566667,22.6466667 59.4255556,24.2266667" id="Fill-7"></path>
                            <path d="M47.9266667,58.8111111 L43.2744444,54.1588889 C44.8544444,52.2277778 44.7666667,49.4188889 43.0111111,47.5755556 C41.08,45.6444444 38.0077778,45.6444444 36.0766667,47.5755556 C34.1455556,49.5066667 34.1455556,52.5788889 36.0766667,54.51 C37.92,56.3533333 40.7288889,56.3533333 42.66,54.7733333 L47.3122222,59.4255556 C45.82,61.2688889 45.82,63.8144444 47.3122222,65.6577778 L42.66,70.31 C40.7288889,68.73 37.92,68.8177778 36.0766667,70.5733333 C34.1455556,72.5044444 34.1455556,75.5766667 36.0766667,77.5077778 C38.0077778,79.4388889 41.08,79.4388889 43.0111111,77.5077778 C44.8544444,75.6644444 44.8544444,72.8555556 43.2744444,70.9244444 L47.9266667,66.2722222 C49.8577778,67.8522222 52.6666667,67.7644444 54.51,66.0088889 C56.4411111,64.0777778 56.4411111,61.0055556 54.51,59.0744444 C52.6666667,57.3188889 49.8577778,57.2311111 47.9266667,58.8111111" id="Fill-8"></path>
                            <path d="M62.5855556,46.0833333 C61.3566667,46.0833333 60.04,46.5222222 59.1622222,47.4877778 C57.2311111,49.4188889 57.2311111,52.4911111 59.1622222,54.4222222 C60.1277778,55.3877778 61.3566667,55.8266667 62.5855556,55.8266667 C63.8144444,55.8266667 65.1311111,55.3877778 66.0088889,54.4222222 C67.94,52.4911111 67.94,49.4188889 66.0088889,47.4877778 C65.0433333,46.61 63.8144444,46.0833333 62.5855556,46.0833333 L62.5855556,46.0833333 L62.5855556,46.0833333 Z M65.3944444,53.8955556 C64.6044444,54.6855556 63.6388889,55.0366667 62.5855556,55.0366667 C61.5322222,55.0366667 60.4788889,54.5977778 59.7766667,53.8955556 C58.9866667,53.1055556 58.6355556,52.14 58.6355556,51.0866667 C58.6355556,50.0333333 59.0744444,48.98 59.7766667,48.2777778 C60.4788889,47.5755556 61.5322222,47.1366667 62.5855556,47.1366667 C63.6388889,47.1366667 64.6922222,47.5755556 65.3944444,48.2777778 C66.9744444,49.77 66.9744444,52.3155556 65.3944444,53.8955556 L65.3944444,53.8955556 L65.3944444,53.8955556 Z" id="Fill-9"></path>
                            <path d="M77.5955556,35.9888889 C76.63,35.0233333 75.4011111,34.5844444 74.1722222,34.5844444 C72.9433333,34.5844444 71.6266667,35.0233333 70.7488889,35.9888889 C68.8177778,37.92 68.8177778,40.9922222 70.7488889,42.9233333 C71.7144444,43.8888889 72.9433333,44.3277778 74.1722222,44.3277778 C75.4011111,44.3277778 76.7177778,43.8888889 77.5955556,42.9233333 C79.4388889,40.9922222 79.4388889,37.92 77.5955556,35.9888889 L77.5955556,35.9888889 L77.5955556,35.9888889 Z M76.8933333,42.3088889 C76.1033333,43.0988889 75.1377778,43.45 74.0844444,43.45 C73.0311111,43.45 71.9777778,43.0111111 71.2755556,42.3088889 C69.6955556,40.7288889 69.6955556,38.1833333 71.2755556,36.6033333 C72.0655556,35.8133333 73.0311111,35.4622222 74.0844444,35.4622222 C75.1377778,35.4622222 76.1911111,35.9011111 76.8933333,36.6033333 C77.5955556,37.3055556 78.0344444,38.3588889 78.0344444,39.4122222 C78.0344444,40.4655556 77.6833333,41.6066667 76.8933333,42.3088889 L76.8933333,42.3088889 L76.8933333,42.3088889 Z" id="Fill-10"></path>
                        </g>
                    </g>
                </g>
            </g>
        </g>
    </g>
</svg>