<?xml version="1.0" encoding="UTF-8" standalone="no"?>
<svg width="100px" height="100px" viewBox="0 0 100 100" version="1.1" xmlns="http://www.w3.org/2000/svg" xmlns:xlink="http://www.w3.org/1999/xlink" xmlns:sketch="http://www.bohemiancoding.com/sketch/ns">
    <!-- Generator: Sketch 3.3 (11970) - http://www.bohemiancoding.com/sketch -->
    <title>Artboard 1</title>
    <desc>Created with Sketch.</desc>
    <defs></defs>
    <g id="Page-1" stroke="none" stroke-width="1" fill="none" fill-rule="evenodd" sketch:type="MSPage">
        <g id="Artboard-1" sketch:type="MSArtboardGroup" fill="#000000">
            <g id="icon-measure" sketch:type="MSLayerGroup" transform="translate(15.000000, 14.000000)">
                <g id="Page-1" sketch:type="MSShapeGroup">
                    <g id="2.-Approach">
                        <g id="Imported-Layers" transform="translate(0.339873, 0.375000)">
                            <g id="Group">
                                <path d="M0.0277350649,70.1800299 L69.3376623,70.1800299 L69.3376623,68.8785857 L65.9123818,68.8785857 L65.9123818,17.4225598 L57.8137429,17.4225598 L57.8137429,68.8785857 L52.3083325,68.8785857 L52.3083325,36.860259 L44.2096935,36.860259 L44.2096935,68.8785857 L38.7042831,68.8785857 L38.7042831,32.2842131 L30.6056442,32.2842131 L30.6056442,68.8645916 L25.1002338,68.8645916 L25.1002338,23.1461155 L17.0015948,23.1461155 L17.0015948,68.8785857 L11.5239195,68.8785857 L11.5239195,41.4363048 L3.42528052,41.4363048 L3.42528052,68.8785857 L0.0277350649,68.8785857 L0.0277350649,70.1800299 L0.0277350649,70.1800299 Z M59.1034234,18.724004 L64.6088338,18.724004 L64.6088338,68.8645916 L59.380774,68.8645916 L59.380774,68.5987052 L59.1034234,68.5987052 L59.1034234,18.724004 L59.1034234,18.724004 Z M45.5132416,38.1617032 L51.0186519,38.1617032 L51.0186519,68.8645916 L45.7905922,68.8645916 L45.7905922,68.5987052 L45.5132416,68.5987052 L45.5132416,38.1617032 L45.5132416,38.1617032 Z M31.9230597,33.5996514 L37.4284701,33.5996514 L37.4284701,68.8785857 L31.9230597,68.8785857 L31.9230597,33.5996514 L31.9230597,33.5996514 Z M18.3190104,24.4475598 L23.8244208,24.4475598 L23.8244208,68.8785857 L18.3190104,68.8785857 L18.3190104,24.4475598 L18.3190104,24.4475598 Z M4.72882857,42.737749 L10.234239,42.737749 L10.234239,68.8645916 L5.00617922,68.8645916 L5.00617922,68.5987052 L4.72882857,68.5987052 L4.72882857,42.737749 L4.72882857,42.737749 Z" id="Fill-1"></path>
                                <path d="M65.0525948,8.24248008 C67.2852675,8.24248008 69.1019143,6.40940289 69.1019143,4.1562251 C69.1019143,1.90304731 67.2852675,0.0699701195 65.0525948,0.0699701195 C62.8197834,0.0699701195 61.0032753,1.90304731 61.0032753,4.1562251 C61.0032753,4.97389592 61.2476212,5.76917629 61.7098261,6.45600299 L61.9354509,6.79101992 L45.0013909,23.8795423 L44.6681541,23.6468217 C44.0030673,23.1819402 43.2162235,22.9362052 42.3930468,22.9362052 C41.7009182,22.9362052 41.0121179,23.131002 40.3456443,23.5154178 L40.0239175,23.7011185 L27.7494872,11.3147281 L27.9414138,10.9876877 C28.3197201,10.3424233 28.5116468,9.64957918 28.5116468,8.92818725 C28.5116468,6.67500946 26.6951387,4.84193227 24.4623273,4.84193227 C22.2295159,4.84193227 20.4130078,6.67500946 20.4130078,8.92818725 C20.4130078,9.62648904 20.6061825,10.3215722 20.9868463,10.994125 L21.1708684,11.3187864 L6.44230088,26.196113 L6.11807797,26.0025757 C5.47878473,25.6206788 4.79206452,25.4271414 4.07705455,25.4271414 C1.84424314,25.4271414 0.0277350649,27.2602186 0.0277350649,29.5133964 C0.0277350649,31.7665742 1.84424314,33.5996514 4.07705455,33.5996514 C6.30986595,33.5996514 8.12637403,31.7665742 8.12637403,29.5133964 C8.12637403,28.8150946 7.9331993,28.1200115 7.55239686,27.4473187 L7.36851338,27.1225174 L22.0955555,12.2611439 L22.4188077,12.4514626 C22.5237849,12.5133162 22.6778532,12.6009188 22.8294253,12.6645916 L22.8317828,12.6645916 L22.9230312,12.6995767 C23.102477,12.7720657 23.3006441,12.8358785 23.5121239,12.8890558 C23.6184879,12.9127057 23.7215237,12.9357958 23.8310772,12.9468511 C23.9442363,12.9609851 24.0354846,12.9724602 24.115639,12.9724602 L24.1576576,12.9745593 C24.217704,12.9809965 24.2645763,12.9879935 24.3114485,12.9952704 C24.3802315,13.0060458 24.4344535,13.0144422 24.4900623,13.0144422 C24.5373506,13.0144422 24.6008639,13.0049263 24.6681215,12.9948506 C24.7156871,12.9878536 24.7632527,12.9808566 24.810957,12.9755388 C24.8693394,12.968122 24.9349328,12.9636439 25.0005262,12.9594457 C25.0518361,12.9562271 25.0944094,12.9535682 25.1371214,12.9482505 C25.2258736,12.9383147 25.3161512,12.9197027 25.4205738,12.8982918 L25.4899114,12.8841579 C25.6663064,12.8390971 25.8659989,12.776124 26.0591736,12.7039148 L26.0681875,12.6992968 C26.2542898,12.6123939 26.4231964,12.5337475 26.5896068,12.4433461 L26.9075893,12.27038 L39.1462414,24.6208058 L38.9566722,24.9471464 C38.7573958,25.2898601 38.6026341,25.68799 38.4965475,26.1303411 C38.4833733,26.1832385 38.4713086,26.2317978 38.4593825,26.2923919 C38.4100141,26.5281912 38.3853299,26.7729467 38.3853299,27.0224602 C38.3853299,29.2756379 40.2018379,31.1087151 42.4346494,31.1087151 C44.6674608,31.1087151 46.4839688,29.2756379 46.4839688,27.0224602 C46.4839688,26.7147316 46.4479132,26.4193177 46.3735833,26.1197057 C46.3681749,26.0974552 46.3627666,26.0787032 46.3574969,26.0599512 C46.3487604,26.0291643 46.3403012,25.9993571 46.331842,25.9652117 C46.2798388,25.7547415 46.1951081,25.52426 46.0732125,25.2611723 C46.0237054,25.1753889 45.9986052,25.0758914 45.9986052,24.9653386 L45.9986052,24.7628451 L62.9316944,7.63234064 L63.2449619,7.79033317 C63.8396017,8.09036504 64.4475544,8.24248008 65.0525948,8.24248008 L65.0525948,8.24248008 L65.0525948,8.24248008 Z M4.07705455,32.2702191 C2.56299735,32.2702191 1.33128312,31.0272699 1.33128312,29.4994024 C1.33128312,27.9715349 2.56299735,26.7285857 4.07705455,26.7285857 C5.59111174,26.7285857 6.82282597,27.9715349 6.82282597,29.4994024 C6.82282597,31.0272699 5.59111174,32.2702191 4.07705455,32.2702191 L4.07705455,32.2702191 L4.07705455,32.2702191 Z M26.2949217,10.9888073 C25.8010989,11.4298989 25.1490475,11.6729751 24.4588604,11.6729751 C23.7570246,11.6729751 23.1001196,11.422762 22.6089316,10.9685159 C22.0337063,10.4406614 21.7165558,9.71591086 21.7165558,8.92818725 C21.7165558,7.40031972 22.9545105,6.15737052 24.4761948,6.15737052 C25.9901133,6.15737052 27.2219662,7.40031972 27.2219662,8.92818725 C27.2219662,9.71325199 26.8840145,10.4641713 26.2949217,10.9888073 L26.2949217,10.9888073 L26.2949217,10.9888073 Z M42.4069143,29.8072709 C40.8928571,29.8072709 39.6611429,28.5643217 39.6611429,27.0364542 C39.6611429,26.8625085 39.6761198,26.6863237 39.705935,26.5127978 C39.7124527,26.4523436 39.728123,26.3927291 39.7539166,26.3315752 C39.781513,26.2112266 39.8184007,26.0719861 39.892592,25.9221101 L39.952361,25.814496 C39.9864752,25.7438262 40.0276617,25.6586026 40.0771688,25.5751982 L40.0771688,25.5680613 L40.1677238,25.4362375 C40.6941354,24.6923152 41.5103783,24.2656375 42.4069143,24.2656375 C43.091693,24.2317719 43.7699541,24.5047953 44.3112038,25.0330697 L44.3374135,25.0607779 L44.4968901,25.2506768 C44.7413747,25.538254 45.1526857,26.1542709 45.1526857,27.0364542 C45.1526857,28.5643217 43.9209715,29.8072709 42.4069143,29.8072709 L42.4069143,29.8072709 L42.4069143,29.8072709 Z M62.3068234,4.14223108 C62.3068234,2.61436355 63.5385376,1.37141434 65.0525948,1.37141434 C66.566652,1.37141434 67.7983662,2.61436355 67.7983662,4.14223108 C67.7983662,5.67009861 66.566652,6.91304781 65.0525948,6.91304781 C63.5385376,6.91304781 62.3068234,5.67009861 62.3068234,4.14223108 L62.3068234,4.14223108 L62.3068234,4.14223108 Z" id="Fill-2"></path>
                            </g>
                        </g>
                    </g>
                </g>
            </g>
        </g>
    </g>
</svg>