<?xml version="1.0" encoding="UTF-8" standalone="no"?>
<svg width="265px" height="175px" viewBox="0 0 265 175" version="1.1" xmlns="http://www.w3.org/2000/svg" xmlns:xlink="http://www.w3.org/1999/xlink" xmlns:sketch="http://www.bohemiancoding.com/sketch/ns">
    <!-- Generator: Sketch 3.3 (11970) - http://www.bohemiancoding.com/sketch -->
    <title>Artboard 2</title>
    <desc>Created with Sketch.</desc>
    <defs></defs>
    <g id="Page-1" stroke="none" stroke-width="1" fill="none" fill-rule="evenodd" sketch:type="MSPage">
        <g id="Artboard-2" sketch:type="MSArtboardGroup" fill="#0A0A08">
            <g id="Imported-Layers" sketch:type="MSLayerGroup" transform="translate(67.000000, 78.000000)">
                <path d="M28.5653728,8.65804762 C29.3581538,7.71911905 29.7549349,6.63457143 29.7549349,5.40204762 C29.7549349,3.92438095 29.1722604,2.6562381 28.008213,1.59316667 C26.8446864,0.531404762 25.4366864,0 23.7836923,0 L1.31791716,0 C0.57095858,0.165261905 0.0109349112,0.823690476 0,1.62171429 L0,5.4177619 L23.6790296,5.4177619 L4.17271006,11.024619 C2.96622485,11.3983571 1.96854438,12.0578333 1.18071006,13.0040952 C0.393136095,13.9521905 0,15.0291429 0,16.2399286 C0,17.7626429 0.581893491,19.0577619 1.74515976,20.1294762 C2.90894675,21.2001429 4.31824852,21.7357381 5.9712426,21.7357381 L28.2940828,21.7349524 C29.0709822,21.6377857 29.6783905,21.018119 29.7549349,20.2310952 L29.7549349,16.2540714 L5.9712426,16.2540714 L25.5041183,10.6199762 C26.752,10.2517381 27.772071,9.5975 28.5653728,8.65804762 L28.5653728,8.65804762 Z M59.3432426,0.00157142857 C58.4911006,0.0382380952 57.8094911,0.708714286 57.7436213,1.55728571 L57.7451834,14.6624762 C57.7069112,15.5642143 56.9617751,16.2726667 56.056,16.2726667 C56.0416805,16.2726667 45.0291834,16.2752857 41.5383432,16.2758095 C40.667716,16.2373095 39.9723077,15.5377619 39.9350769,14.6609048 L39.931432,14.6609048 L39.931432,0 L35.5244024,0 L35.5244024,0.00157142857 C34.7581775,0.0345714286 34.1281183,0.579333333 33.9594083,1.30480952 L33.9594083,16.2792143 C33.9594083,17.7885714 34.5410414,19.076619 35.7048284,20.1396905 C36.8680947,21.2048571 38.2779172,21.7357381 39.931432,21.7357381 L57.7433609,21.7357381 C59.3960947,21.7357381 60.8038343,21.2048571 61.9676213,20.1396905 C63.1316686,19.076619 63.7143432,17.7885714 63.7143432,16.2792143 L63.7143432,0 L59.3432426,0 L59.3432426,0.00157142857 L59.3432426,0.00157142857 Z M130.10774,9.29945238 C129.776047,8.9872619 129.395669,8.72797619 128.967905,8.54045238 C128.397988,8.29085714 127.767408,8.21385714 127.157136,8.12716667 L127.157136,5.4177619 C127.157136,3.93616667 126.574722,2.66278571 125.410935,1.59709524 C124.246888,0.532190476 122.853988,0 121.233278,0 L103.657491,0 L103.657491,0.00733333333 C102.787124,0.0453095238 102.093538,0.742238095 102.052663,1.61621429 L102.052663,21.7357381 L125.836095,21.7357381 C127.488828,21.7357381 128.896568,21.2022381 130.061396,20.132619 C131.224402,19.0640476 131.807858,17.7723333 131.807858,16.2540714 L131.807858,13.5451905 C131.807858,11.9991667 131.248095,10.370119 130.10774,9.29945238 L130.10774,9.29945238 Z M108.051503,5.4177619 L115.433609,5.4177619 C115.44116,5.4175 115.44845,5.41357143 115.45626,5.41357143 L119.822935,5.41357143 L119.822935,5.41802381 C119.837254,5.4177619 119.850793,5.41435714 119.865112,5.41435714 C120.634201,5.41435714 121.255929,6.02538095 121.288473,6.79066667 L121.295243,6.79066667 L121.295243,7.62614286 C121.295243,7.90402381 121.048426,8.13083333 120.743811,8.13083333 L115.45626,8.13083333 C115.449751,8.13083333 115.443243,8.12716667 115.436473,8.12716667 L108.051503,8.12716667 L108.051503,5.4177619 L108.051503,5.4177619 Z M125.811361,15.754619 C125.811361,16.0317143 125.564024,16.258 125.260189,16.258 L121.363456,16.258 C121.357207,16.258 121.351219,16.2540714 121.34471,16.2540714 L108.051503,16.2540714 L108.051503,13.5451905 C108.051503,13.5451905 124.379148,13.5446667 124.393467,13.5446667 C125.149018,13.5446667 125.75955,14.1360476 125.811361,14.8832619 L125.811361,15.754619 L125.811361,15.754619 Z M96.0202367,1.59709524 C94.855929,0.532190476 93.4476686,0 91.7954556,0 L69.5947219,0 C68.7269586,0.0497619048 68.0375385,0.7535 68.0109822,1.63271429 L68.0109822,21.7357381 L72.5276213,21.7349524 C73.2836923,21.6404048 73.8806864,21.051119 73.9822249,20.2934286 L73.9822249,13.5795 L90.1570414,13.582381 C91.0706272,13.582381 91.8126391,14.2596667 91.8126391,15.094619 L91.8126391,20.3240714 C91.8126391,20.3756667 91.8006627,20.4251667 91.7954556,20.4746667 L91.7954556,21.7357381 L96.0590296,21.7357381 L96.0590296,21.7349524 L96.2004024,21.7349524 C97.0431716,21.6802143 97.711503,21.0086905 97.7664379,20.1619524 L97.7664379,16.2731905 C97.7664379,14.6700714 97.0902959,13.3113095 95.7419172,12.2010952 C97.0902959,11.1204762 97.7664379,9.76328571 97.7664379,8.12716667 L97.7664379,5.4177619 C97.7664379,3.93616667 97.1832426,2.66278571 96.0202367,1.59709524 L96.0202367,1.59709524 Z M91.7972781,7.62090476 C91.7972781,7.89957143 91.5507219,8.12559524 91.2461065,8.12559524 L89.0067929,8.12559524 L89.0067929,8.12716667 L73.9822249,8.12716667 L73.9822249,5.4177619 L90.3338225,5.42614286 L90.3338225,5.43269048 C90.348142,5.43242857 90.3611598,5.4285 90.3757396,5.4285 C91.1393609,5.4285 91.7571834,6.03245238 91.7972781,6.79066667 L91.7972781,7.62090476 L91.7972781,7.62090476 Z" sketch:type="MSShapeGroup"></path>
            </g>
        </g>
    </g>
</svg>