<?xml version="1.0" encoding="UTF-8" standalone="no"?>
<svg width="265px" height="175px" viewBox="0 0 265 175" version="1.1" xmlns="http://www.w3.org/2000/svg" xmlns:xlink="http://www.w3.org/1999/xlink" xmlns:sketch="http://www.bohemiancoding.com/sketch/ns">
    <!-- Generator: Sketch 3.3 (11970) - http://www.bohemiancoding.com/sketch -->
    <title>Artboard 1</title>
    <desc>Created with Sketch.</desc>
    <defs></defs>
    <g id="Page-1" stroke="none" stroke-width="1" fill="none" fill-rule="evenodd" sketch:type="MSPage">
        <g id="Artboard-1" sketch:type="MSArtboardGroup" fill="#2D2E2B">
            <g id="Imported-Layers" sketch:type="MSLayerGroup" transform="translate(62.000000, 70.500000)">
                <path d="M50.7171964,22.8316296 L50.6567679,22.672963 L50.5031786,22.7447407 C49.3336339,23.3025926 47.9072679,23.5846667 46.2643661,23.5846667 C41.77125,23.5846667 38.510625,20.5158519 38.510625,16.2872593 C38.510625,11.7211852 41.70075,8.65488889 46.4469107,8.65488889 C48.5631696,8.65488889 50.3118214,9.16488889 51.7923214,10.2138519 L52.0415893,10.3914074 L52.0415893,7.05814815 L51.9585,7.01407407 C50.6643214,6.32148148 48.82125,5.9562963 46.6307143,5.9562963 C39.9231429,5.9562963 35.4161786,10.1080741 35.4161786,16.2872593 C35.4161786,22.0798519 39.991125,26.2832593 46.2945804,26.2832593 C48.4083214,26.2832593 50.3860982,25.8765185 52.0126339,25.1071111 L52.2140625,25.0114074 L52.0566964,24.8527407 C51.4687768,24.2659259 50.9929018,23.5481481 50.7171964,22.8316296" id="Fill-1" sketch:type="MSShapeGroup"></path>
                <path d="M60.3165268,11.1205185 C56.065125,11.1205185 52.8598929,14.353037 52.8598929,18.6395556 C52.8598929,22.944963 56.065125,26.1913333 60.3165268,26.1913333 C64.5855536,26.1913333 67.8046339,22.944963 67.8046339,18.6395556 C67.8046339,14.353037 64.5855536,11.1205185 60.3165268,11.1205185 L60.3165268,11.1205185 Z M60.3165268,23.6463704 C57.6727768,23.6463704 55.6786339,21.4942963 55.6786339,18.6395556 C55.6786339,15.804963 57.6727768,13.6654815 60.3165268,13.6654815 C62.9779018,13.6654815 64.9846339,15.804963 64.9846339,18.6395556 C64.9846339,21.4942963 62.9779018,23.6463704 60.3165268,23.6463704 L60.3165268,23.6463704 Z" id="Fill-2" sketch:type="MSShapeGroup"></path>
                <path d="M83.3549196,11.6166667 L83.3586964,11.4554815 L80.40525,11.4554815 L80.4128036,11.6204444 C80.6016429,15.5971852 80.5600982,19.6457037 80.5059643,23.1414074 C79.4900089,23.4877037 78.3884464,23.6765926 77.3938929,23.6765926 C74.8307143,23.6765926 73.6636875,22.6502963 73.6108125,20.3471111 C73.5239464,17.5011852 73.5428304,14.6464444 73.6725,11.6191852 L73.6787946,11.4554815 L70.7215714,11.4554815 L70.7303839,11.6217037 C70.8613125,14.1628889 70.8575357,16.8413333 70.8537589,19.4316296 L70.8525,20.7185926 C70.8525,24.2155556 72.914625,26.2215556 76.5076071,26.2215556 C77.7501696,26.2215556 78.5961696,26.0188148 79.3427143,25.8387407 C79.9633661,25.6901481 80.5500268,25.5503704 81.2726518,25.5503704 C81.9109286,25.5503704 82.5366161,25.6372593 83.1849643,25.8185926 L83.3901696,25.8765185 L83.3851339,25.6637037 C83.2705714,20.6254074 83.22525,16.5177037 83.3549196,11.6166667" id="Fill-3" sketch:type="MSShapeGroup"></path>
                <path d="M100.123848,17.9293333 L100.125107,16.6247407 C100.125107,13.1265185 98.0642411,11.1205185 94.47,11.1205185 C93.2475804,11.1205185 92.4003214,11.3232593 91.6537768,11.5020741 C91.0255714,11.6519259 90.4313571,11.792963 89.7062143,11.792963 C89.1913125,11.792963 88.5996161,11.7098519 87.7863482,11.520963 L87.5886964,11.4756296 L87.5937321,11.6783704 C87.7045179,16.592 87.7523571,20.8671852 87.6239464,25.7556296 L87.6189107,25.9168148 L90.5723571,25.9168148 L90.5648036,25.7518519 C90.3772232,21.7700741 90.4175089,17.708963 90.4716429,14.2019259 C91.4863393,13.8644444 92.6407768,13.6654815 93.5849732,13.6654815 C96.1468929,13.6654815 97.3139196,14.693037 97.3680536,16.9962222 C97.4549196,19.8295556 97.4347768,22.6943704 97.3063661,25.7531111 L97.2988125,25.9168148 L100.256036,25.9168148 L100.247223,25.7505926 C100.117554,23.2157037 100.12133,20.5284444 100.123848,17.9293333" id="Fill-4" sketch:type="MSShapeGroup"></path>
                <path d="M108.903616,17.3941481 C107.341286,16.7783704 105.992973,16.246963 105.992973,15.1262222 C105.992973,13.9588889 107.442,13.5433333 108.797866,13.5433333 C110.118482,13.5433333 111.422732,13.8845926 112.568357,14.5318519 L112.803777,14.6628148 L112.803777,11.8118519 L112.701804,11.7715556 C111.571286,11.3396296 110.298509,11.1205185 108.919982,11.1205185 C106.311482,11.1205185 103.264875,12.2337037 103.264875,15.3717778 C103.264875,18.122 105.656839,19.1092593 107.766804,19.9781481 C109.301437,20.6115556 110.62583,21.1568148 110.62583,22.2460741 C110.62583,23.2182222 109.46258,23.7987407 107.515018,23.7987407 C106.045848,23.7987407 104.683688,23.4562222 103.467562,22.7812593 L103.234661,22.6502963 L103.234661,25.4685185 L103.332857,25.5088148 C104.531357,25.9873333 105.869598,26.2215556 107.423116,26.2215556 C111.062679,26.2215556 113.414357,24.5291111 113.414357,21.9098519 C113.414357,19.1697037 111.018616,18.2265185 108.903616,17.3941481" id="Fill-5" sketch:type="MSShapeGroup"></path>
                <path d="M125.870196,11.6179259 C125.97217,14.8227407 125.967134,18.0955556 125.963357,21.2613333 L125.962098,22.678 C125.010348,23.2622963 123.854652,23.5846667 122.697696,23.5846667 C120.47317,23.5846667 119.457214,22.5684444 119.40308,20.2866667 C119.346429,17.4986667 119.30992,14.5192593 119.434554,11.6204444 L119.440848,11.4554815 L116.483625,11.4554815 L116.492438,11.622963 C116.581821,13.1101481 116.646027,14.6275556 116.646027,20.6568889 C116.646027,24.1551111 118.64017,26.1611111 122.11733,26.1611111 C123.585241,26.1611111 124.936071,25.7543704 125.960839,25.0101481 L125.960839,26.3701481 C125.960839,29.0775556 124.516848,30.3368148 121.414848,30.3368148 C119.829857,30.3368148 118.314107,29.9325926 116.910402,29.1354815 L116.676241,29.002 L116.676241,31.9398519 L116.768143,31.9814074 C118.324179,32.6954074 120.052688,32.7911111 121.536964,32.7911111 C126.054,32.7911111 128.750625,30.3443704 128.750625,26.2467407 C128.750625,24.882963 128.745589,23.5607407 128.741813,22.2674815 C128.731741,18.5539259 128.720411,15.0456296 128.811054,11.6166667 L128.81483,11.4554815 L125.865161,11.4554815 L125.870196,11.6179259" id="Fill-6" sketch:type="MSShapeGroup"></path>
                <path d="M139.814089,23.227037 C139.26142,23.4222222 138.740223,23.4637778 138.400313,23.4637778 C137.035634,23.4637778 135.80692,23.2585185 135.74775,20.7752593 C135.687321,17.9671111 135.655848,15.090963 135.655848,12.2248889 C135.655848,9.03140741 135.696134,6.24466667 135.777964,3.706 L135.783,3.54355556 L132.799339,3.54355556 L132.805634,3.70725926 C132.935304,6.77985185 132.989438,9.86125926 132.989438,20.9931111 C132.989438,24.0946667 134.837545,26.0994074 137.69783,26.0994074 C138.464518,26.0994074 139.471661,25.936963 139.897179,25.8513333 L140.023071,25.8261481 L140.023071,23.154 L139.814089,23.227037" id="Fill-7" sketch:type="MSShapeGroup"></path>
                <path d="M26.6326339,14.1717037 C26.6502589,12.3822963 26.1995625,11.0097037 25.2943929,10.0942222 C24.4572054,9.248 23.2725536,8.82111111 21.7731696,8.82111111 L20.7886875,8.82111111 L20.7886875,11.1671111 L21.2847054,11.1671111 C23.1982768,11.1671111 24.0291696,11.9982222 24.0619018,13.9475556 C24.1349196,17.2291852 24.1361786,20.6959259 24.0644196,23.9838519 C20.8919196,24.0203704 17.6476607,24.0178519 14.4764196,23.9825926 C12.2934375,23.9825926 11.3618304,23.0494815 11.3618304,20.8659259 L11.3618304,18.6508889 C12.5049375,18.6345185 13.7940804,18.6257037 15.1021071,18.6257037 C16.4705625,18.6257037 17.748375,18.6357778 18.7995804,18.6534074 L18.9632411,18.6559259 L18.9594643,18.4934815 C18.8839286,14.4663704 18.9242143,10.1521481 18.9594643,6.34414815 C18.9594643,3.18340741 17.0547054,1.22022222 13.9866964,1.22022222 L13.8859821,1.22148148 C11.5166786,1.24288889 9.06428571,1.26303704 6.64966071,1.26303704 C4.68825,1.26303704 2.943375,1.25044444 1.31558036,1.22022222 L1.15191964,1.2177037 L1.1544375,1.38014815 C1.22871429,5.46014815 1.19346429,9.71266667 1.1544375,13.3783704 C1.1368125,15.1677778 1.58750893,16.5391111 2.4939375,17.4545926 C3.32986607,18.3008148 4.51451786,18.728963 6.01390179,18.728963 L6.99838393,18.728963 L6.99838393,16.3817037 L6.50236607,16.3817037 C4.58879464,16.3817037 3.75916071,15.5505926 3.72642857,13.6012593 C3.65215179,10.2780741 3.68991964,6.72066667 3.72516964,3.56622222 C6.89515179,3.52844444 10.1394107,3.5297037 13.3106518,3.56748148 C15.4936339,3.56748148 16.4265,4.49933333 16.4265,6.68162963 L16.4265,8.89792593 C15.2833929,8.9142963 13.99425,8.92437037 12.6849643,8.92437037 C11.3177679,8.92437037 10.0386964,8.9142963 8.98749107,8.89540741 L8.82508929,8.89288889 L8.82760714,9.05533333 C8.90440179,13.1051111 8.86411607,17.408 8.82760714,21.2059259 C8.82760714,24.3654074 10.733625,26.3285926 13.8016339,26.3285926 C17.9938661,26.2920741 22.2817768,26.2920741 26.4740089,26.3285926 L26.6351518,26.3298519 L26.6326339,26.1686667 C26.5583571,22.1100741 26.5936071,17.8487407 26.6326339,14.1717037 L26.6326339,14.1717037 Z M11.3593125,11.2036296 C13.0122857,11.2036296 14.8566161,11.2048889 16.4630089,11.2388889 C16.4630089,12.914963 16.46175,14.6426667 16.4290179,16.3439259 C14.7760446,16.3439259 12.9304554,16.3426667 11.3240625,16.3111852 C11.3240625,14.6351111 11.3253214,12.9074074 11.3593125,11.2036296 L11.3593125,11.2036296 Z" id="Fill-8" sketch:type="MSShapeGroup"></path>
            </g>
        </g>
    </g>
</svg>