<?xml version="1.0" encoding="UTF-8" standalone="no"?>
<svg width="265px" height="175px" viewBox="0 0 265 175" version="1.1" xmlns="http://www.w3.org/2000/svg" xmlns:xlink="http://www.w3.org/1999/xlink" xmlns:sketch="http://www.bohemiancoding.com/sketch/ns">
    <!-- Generator: Sketch 3.3 (11970) - http://www.bohemiancoding.com/sketch -->
    <title>Artboard 3</title>
    <desc>Created with Sketch.</desc>
    <defs></defs>
    <g id="Page-1" stroke="none" stroke-width="1" fill="none" fill-rule="evenodd" sketch:type="MSPage">
        <g id="Artboard-3" sketch:type="MSArtboardGroup" fill="#0A0A08">
            <g id="Imported-Layers" sketch:type="MSLayerGroup" transform="translate(63.500000, 62.500000)">
                <path d="M55.8974234,29.2001916 L56.5086207,28.0576628 C56.6249214,27.8233716 56.9450814,27.7354406 57.2361186,27.9111111 C57.2361186,27.9111111 58.516949,28.6727969 59.9430124,28.6727969 C60.8163145,28.6727969 61.3690759,28.3212644 61.3690759,27.6770115 C61.3690759,26.8860153 60.7289462,26.5051724 59.1281462,25.7727969 C57.3234869,24.9818008 55.8100552,23.8687739 55.8100552,21.9354406 C55.8100552,20.4708812 57.0035172,18.71341 59.7973986,18.71341 C61.4275117,18.71341 62.6497159,19.240613 63.2319807,19.6214559 C63.4937048,19.7971264 63.639509,20.1779693 63.4647724,20.4708812 L62.9409434,21.4668582 C62.7951393,21.7304598 62.4169241,21.8183908 62.1839421,21.7011494 C62.1839421,21.7011494 60.9034924,21.0860153 59.7973986,21.0860153 C58.8079862,21.0860153 58.4876359,21.5254789 58.4876359,21.964751 C58.4876359,22.7264368 59.2155145,23.048659 60.3505407,23.5467433 C62.4751697,24.4840996 64.2213931,25.3921456 64.2213931,27.5890805 C64.2213931,29.4051724 62.5042924,31.0162835 59.9138897,31.0162835 C57.9638069,31.0162835 56.6833572,30.3132184 56.0719697,29.8153257 C55.8974234,29.6980843 55.7811228,29.4342912 55.8974234,29.2001916" id="Fill-1" sketch:type="MSShapeGroup"></path>
                <path d="M64.8611421,19.7678161 C64.6864055,19.3871648 64.9190069,19.0063218 65.3556579,19.0063218 L67.2768083,19.0063218 C67.4513545,19.0063218 67.6843366,19.152682 67.7715145,19.3283525 L71.3806428,27.1203065 L71.4097655,27.1203065 L74.9024028,19.3283525 C75.0187034,19.0649425 75.2516855,19.0063218 75.5136,19.0063218 L77.1724552,19.0063218 C77.638229,19.0063218 77.8710207,19.3871648 77.6673517,19.7678161 L68.7611172,39.1597701 C68.673749,39.3354406 68.4992028,39.5111111 68.2662207,39.5111111 L66.5198069,39.5111111 C66.0835366,39.5111111 65.8214317,39.1304598 66.0251007,38.7203065 L69.9252662,30.3132184 L64.8611421,19.7678161" id="Fill-2" sketch:type="MSShapeGroup"></path>
                <path d="M79.3258262,19.5628352 C79.3258262,19.2699234 79.5877407,19.0063218 79.8787779,19.0063218 L80.7227669,19.0063218 C80.9555586,19.0063218 81.1301048,19.152682 81.1885407,19.3576628 L81.5378234,20.3538314 C81.7414924,20.1193487 83.2840469,18.71341 85.6123448,18.71341 C89.1634179,18.71341 90.4729903,21.2323755 90.4729903,24.2789272 L90.4729903,30.1668582 C90.4729903,30.4597701 90.2110759,30.7233716 89.9200386,30.7233716 L88.2609931,30.7233716 C87.9410234,30.7233716 87.7080414,30.4597701 87.7080414,30.1668582 L87.7080414,24.1616858 C87.7080414,22.2869732 86.8058069,21.2618774 85.2923752,21.2618774 C83.4587834,21.2618774 82.2072662,22.609387 82.0616524,23.0193487 L82.0616524,30.1668582 C82.0616524,30.5475096 81.8869159,30.7233716 81.3922097,30.7233716 L79.8787779,30.7233716 C79.5877407,30.7233716 79.3258262,30.4597701 79.3258262,30.1668582 L79.3258262,19.5628352" id="Fill-3" sketch:type="MSShapeGroup"></path>
                <path d="M97.9232772,18.71341 C100.950331,18.71341 103.278819,20.9980843 103.278819,24.132567 C103.278819,24.3375479 103.249506,24.7181992 103.220574,24.9233716 C103.191451,25.2162835 102.958469,25.4212644 102.696554,25.4212644 L94.7799228,25.4212644 C94.867291,27.0030651 96.2352993,28.5555556 98.1269462,28.5555556 C99.1747945,28.5555556 100.135274,28.0869732 100.717539,27.7061303 C101.066822,27.5011494 101.270491,27.383908 101.503473,27.6770115 L102.318339,28.7900383 C102.522008,29.0243295 102.609377,29.2586207 102.260094,29.5517241 C101.416105,30.283908 99.9024828,31.0162835 97.9524,31.0162835 C94.43064,31.0162835 92.1023421,28.2335249 92.1023421,24.864751 C92.1023421,21.5547893 94.43064,18.71341 97.9232772,18.71341 L97.9232772,18.71341 Z M100.571926,23.5758621 C100.484557,22.1699234 99.3204083,20.9687739 97.8943448,20.9687739 C96.3226676,20.9687739 95.1000828,22.1113027 94.9255366,23.5758621 L100.571926,23.5758621 L100.571926,23.5758621 Z" id="Fill-4" sketch:type="MSShapeGroup"></path>
                <path d="M104.907981,19.5628352 C104.907981,19.2699234 105.169895,19.0063218 105.461123,19.0063218 L106.304921,19.0063218 C106.508781,19.0063218 106.741572,19.1819923 106.799818,19.4162835 L107.119978,20.4122605 C107.323837,20.1193487 108.400618,18.71341 110.525247,18.71341 C111.631341,18.71341 112.970226,19.0063218 112.649876,19.7971264 L111.95131,21.2323755 C111.806077,21.5547893 111.51485,21.6132184 111.252935,21.4961686 C111.078199,21.4082375 110.641548,21.2911877 110.263332,21.2911877 C108.575164,21.2911877 107.760298,22.5212644 107.643807,22.7264368 L107.643807,30.1668582 C107.643807,30.664751 107.323837,30.7233716 106.857873,30.7233716 L105.461123,30.7233716 C105.169895,30.7233716 104.907981,30.4597701 104.907981,30.1668582 L104.907981,19.5628352" id="Fill-5" sketch:type="MSShapeGroup"></path>
                <path d="M114.133994,26.6808429 C114.133994,26.6808429 113.23176,25.5971264 113.23176,23.8394636 C113.23176,21.1153257 115.269021,18.71341 118.237829,18.71341 L123.331076,18.71341 C123.651426,18.71341 123.884218,18.9477011 123.884218,19.2699234 L123.884218,20.0022989 C123.884218,20.2072797 123.767727,20.4708812 123.564058,20.5001916 L121.963258,20.9396552 C121.963258,20.9396552 123.214775,21.8770115 123.214775,24.0739464 C123.214775,26.5637931 121.293815,28.848659 118.266952,28.848659 C116.782452,28.848659 115.967586,28.3800766 115.734604,28.3800766 C115.530935,28.3800766 114.541523,28.8777778 114.541523,29.8153257 C114.541523,30.4888889 115.065352,31.0162835 115.938463,31.0162835 L119.896684,31.0162835 C122.428841,31.0162835 124.466292,32.3931034 124.466292,34.9415709 C124.466292,37.5193487 122.137804,39.804023 118.266952,39.804023 C114.162927,39.804023 112.504072,37.6952107 112.504072,35.7909962 C112.504072,34.0333333 113.930135,33.2132184 114.221172,33.0375479 L114.221172,32.9496169 C113.609975,32.7737548 112.067421,31.9829502 112.067421,30.0203065 C112.067421,27.764751 114.133994,26.6808429 114.133994,26.6808429 L114.133994,26.6808429 Z M118.237829,37.4021073 C120.013175,37.4021073 121.55573,36.4940613 121.55573,35.087931 C121.55573,34.6193487 121.264692,33.4181992 119.372855,33.4181992 C118.528866,33.4181992 117.655564,33.4181992 116.811575,33.4768199 C116.636839,33.5354406 115.210775,34.0042146 115.210775,35.3224138 C115.210775,36.5231801 116.462483,37.4021073 118.237829,37.4021073 L118.237829,37.4021073 Z M120.740863,23.8980843 C120.740863,22.3162835 119.751261,21.2032567 118.295884,21.2032567 C116.811575,21.2032567 115.734604,22.3162835 115.734604,23.8980843 C115.734604,25.4798851 116.811575,26.5929119 118.295884,26.5929119 C119.751261,26.5929119 120.740863,25.4798851 120.740863,23.8980843 L120.740863,23.8980843 Z" id="Fill-6" sketch:type="MSShapeGroup"></path>
                <path d="M125.047606,19.7678161 C124.873059,19.3871648 125.106041,19.0063218 125.542502,19.0063218 L127.463272,19.0063218 C127.638008,19.0063218 127.8708,19.152682 127.958168,19.3283525 L131.567297,27.1203065 L131.596229,27.1203065 L135.089057,19.3283525 C135.205357,19.0649425 135.438339,19.0063218 135.700254,19.0063218 L137.359299,19.0063218 C137.824883,19.0063218 138.057865,19.3871648 137.854006,19.7678161 L128.947771,39.1597701 C128.860403,39.3354406 128.685857,39.5111111 128.453065,39.5111111 L126.706651,39.5111111 C126.27019,39.5111111 126.008086,39.1304598 126.211754,38.7203065 L130.11192,30.3132184 L125.047606,19.7678161" id="Fill-7" sketch:type="MSShapeGroup"></path>
                <path d="M24.7200828,16.1890805 C26.1762207,17.451341 28.0225655,18.3216475 29.8220855,19.237931 C30.2393214,13.1061303 36.3539586,4.1756705 42.4177738,9.77068966 C44.1628552,11.3806513 46.08096,14.9484674 46.0847669,17.4727969 C46.0954262,24.298659 37.0907834,24.2888889 31.5759228,22.1262452 C31.0823586,23.8750958 31.3534097,25.9042146 31.4166041,27.9028736 C35.9403393,26.6871648 41.5933903,25.5076628 44.6497572,28.7051724 C48.510331,32.744636 43.5724055,41.6484674 38.7507807,42.0235632 C32.6142538,42.5011494 31.3339945,35.6561303 29.8220855,30.9517241 C28.1986345,31.2977011 26.4044441,32.8599617 24.7200828,33.6796935 C27.3173379,36.6856322 30.9672,39.0440613 30.9382676,43.9490421 C30.8914428,51.852682 15.4856938,51.9885057 15.3134317,44.1095785 C15.2053159,39.1712644 18.9474952,36.5201149 21.5316166,33.8400383 C20.0122841,32.6409962 18.2534979,31.6833333 16.4294234,30.7911877 C15.4955917,35.7655172 12.16608,44.566092 5.5879531,41.5423372 C2.84337103,40.2810345 0.172071724,35.706705 0.166932414,32.5559387 C0.156273103,25.7258621 9.1338869,25.798659 14.6757766,27.9028736 C15.1843779,26.2030651 14.9175145,24.0762452 14.8350952,22.1262452 C9.37543448,24.2074713 0.390777931,24.3837165 0.166932414,17.7934866 C0.0243641379,13.5936782 4.54600552,6.35344828 9.89260138,8.32624521 C13.689029,9.72720307 15.3515007,14.7913793 16.4294234,19.0775862 C18.0418345,18.7199234 19.9544193,17.2768199 21.5316166,16.3494253 C19.0457131,13.5170498 15.284309,11.0103448 15.3134317,6.07969349 C15.3602566,-1.86455939 30.7184193,-1.73371648 30.9382676,5.91934866 C31.0798841,10.8561303 27.4715172,13.4001916 24.7200828,16.1890805 L24.7200828,16.1890805 Z M28.8657931,5.11724138 C28.2504083,1.58256705 19.9534676,1.37681992 18.0239421,3.83314176 C15.0437131,7.62720307 21.0104524,13.2319923 23.2854538,15.0659004 C25.2421986,12.555364 29.6578179,9.6697318 28.8657931,5.11724138 L28.8657931,5.11724138 Z M8.93611862,10.0915709 C5.16652966,9.30766284 1.66380414,14.933908 2.23959724,18.4354406 C2.9604331,22.8195402 11.1585848,21.5637931 14.5162676,20.0402299 C13.7762069,16.4480843 12.2327007,10.7770115 8.93611862,10.0915709 L8.93611862,10.0915709 Z M44.0121021,18.4354406 C44.7258952,14.7936782 41.5507531,11.6971264 39.2289269,10.0915709 C33.5958621,10.2524904 32.9608717,15.443295 31.7352414,20.0402299 C35.0769352,21.458046 43.138229,22.891954 44.0121021,18.4354406 L44.0121021,18.4354406 Z M23.1261352,17.6331418 C21.1442648,19.0088123 19.0923476,20.3130268 16.7484414,21.3237548 C16.9532524,23.6314176 16.9962703,26.4070881 16.7484414,28.7051724 C19.1353655,29.7260536 21.0673655,31.2047893 23.2854538,32.395977 C25.1805269,31.0404215 27.0693186,29.6785441 29.5032579,28.8655172 C29.3066317,26.4687739 29.2634234,23.7113027 29.5032579,21.3237548 C27.214171,20.258046 25.0811669,19.0346743 23.1261352,17.6331418 L23.1261352,17.6331418 Z M2.39910621,31.112069 C1.2678869,34.3787356 4.96267034,40.2206897 8.13895448,40.0980843 C9.4022731,40.0496169 10.7573379,38.908046 11.4869297,38.012069 C13.06584,36.0743295 14.0276524,32.885249 14.5162676,29.9888889 C11.1435476,28.717433 3.74598621,27.2226054 2.39910621,31.112069 L2.39910621,31.112069 Z M38.2724441,40.0980843 C41.4057103,40.0980843 44.5585821,34.9176245 44.0121021,31.5934866 C43.3072552,27.306705 35.096731,28.6216475 31.7352414,29.9888889 C32.5803724,33.7957854 34.07496,40.0980843 38.2724441,40.0980843 L38.2724441,40.0980843 Z M17.3862869,44.9118774 C18.1931586,48.9457854 28.0486428,48.8957854 28.8657931,44.9118774 C29.7208221,40.7400383 24.9926566,36.7886973 23.1261352,35.1237548 C23.0284883,35.1327586 22.9369324,35.1478927 22.9664359,35.2840996 C21.0884938,36.7285441 16.6178648,41.0722222 17.3862869,44.9118774 L17.3862869,44.9118774 Z" id="Fill-8" sketch:type="MSShapeGroup"></path>
            </g>
        </g>
    </g>
</svg>