<?xml version="1.0" encoding="UTF-8" standalone="no"?>
<svg width="265px" height="175px" viewBox="0 0 265 175" version="1.1" xmlns="http://www.w3.org/2000/svg" xmlns:xlink="http://www.w3.org/1999/xlink" xmlns:sketch="http://www.bohemiancoding.com/sketch/ns">
    <!-- Generator: Sketch 3.3 (11970) - http://www.bohemiancoding.com/sketch -->
    <title>Artboard 4</title>
    <desc>Created with Sketch.</desc>
    <defs></defs>
    <g id="Page-1" stroke="none" stroke-width="1" fill="none" fill-rule="evenodd" sketch:type="MSPage">
        <g id="Artboard-4" sketch:type="MSArtboardGroup" fill="#0A0A08">
            <g id="Imported-Layers" sketch:type="MSLayerGroup" transform="translate(48.000000, 64.000000)">
                <path d="M3.10122222,24.2505758 C1.21911111,22.3492121 0.180555556,19.8354242 0.180555556,17.1678182 C0.180555556,11.5990303 4.74355556,7.06709091 10.3523333,7.06709091 C11.2666667,7.06709091 12.1723333,7.18957576 13.0462222,7.426 L12.3153333,10.0409091 C11.6797778,9.86857576 11.0196667,9.78027273 10.3523333,9.78027273 C6.26022222,9.78027273 2.93222222,13.0930606 2.93222222,17.1678182 C2.93222222,19.1218788 3.69055556,20.9648485 5.07,22.3549091 L3.10122222,24.2505758" id="Fill-1" sketch:type="MSShapeGroup"></path>
                <path d="M39.3798889,24.3858788 L37.4125556,22.4916364 C38.7905556,21.1001515 39.5503333,19.2586061 39.5503333,17.3031212 C39.5503333,13.2297879 36.2208889,9.91557576 32.1287778,9.91557576 C31.4628889,9.91557576 30.8027778,10.0024545 30.1672222,10.1762121 L29.4348889,7.56272727 C30.3087778,7.32487879 31.2144444,7.20381818 32.1287778,7.20381818 C37.7375556,7.20381818 42.3005556,11.7343333 42.3005556,17.3031212 C42.3005556,19.969303 41.2634444,22.4859394 39.3798889,24.3858788" id="Fill-2" sketch:type="MSShapeGroup"></path>
                <path d="M21.3503333,12.2855152 C17.7854444,12.2855152 14.4198889,11.3953636 11.8444444,9.7660303 L13.3293333,7.48439394 C15.5263333,8.8730303 18.4657778,9.61363636 21.6074444,9.57233333 C24.4241111,9.5310303 27.1223333,8.84739394 29.2052222,7.63963636 L30.5976667,9.97966667 C28.1117778,11.4195758 24.9311111,12.2370909 21.6464444,12.2826667 C21.5482222,12.2840909 21.4485556,12.2855152 21.3503333,12.2855152" id="Fill-3" sketch:type="MSShapeGroup"></path>
                <path d="M14.0168889,38.2466061 L11.2666667,38.211 C11.2984444,35.8296667 10.5675556,33.1777273 9.20833333,30.7465455 C7.69166667,28.0347879 5.58277778,25.8827576 3.27022222,24.6863939 L4.54855556,22.283697 C7.33344444,23.7236061 9.84388889,26.2644545 11.6162222,29.4376667 C13.2022222,32.2747576 14.0544444,35.4038182 14.0168889,38.2466061" id="Fill-4" sketch:type="MSShapeGroup"></path>
                <path d="M28.4656667,38.1127273 C28.4252222,35.2670909 29.2788889,32.1408788 30.8648889,29.3023636 C32.6372222,26.1291515 35.1491111,23.5897273 37.9325556,22.1498182 L39.2094444,24.5510909 C36.8983333,25.7460303 34.7894444,27.8980606 33.2742222,30.6112424 C31.9135556,33.0452727 31.1841111,35.6957879 31.2144444,38.0771212 L28.4656667,38.1127273" id="Fill-5" sketch:type="MSShapeGroup"></path>
                <path d="M21.2607778,45.7794242 C19.5361111,45.7794242 17.7868889,45.3507273 16.1821111,44.4491818 C13.832,43.1317576 12.1275556,40.9982424 11.3851111,38.4445758 L14.0284444,37.6954242 C14.573,39.5654545 15.821,41.125 17.5427778,42.0934848 C21.1336667,44.1102121 25.701,42.8981818 27.7261111,39.3931212 C28.0568889,38.8191515 28.3053333,38.211 28.4671111,37.5814848 L31.1335556,38.2466061 C30.9111111,39.1139697 30.5687778,39.9514242 30.1152222,40.7333333 C28.249,43.9692121 24.8083333,45.7794242 21.2607778,45.7794242" id="Fill-6" sketch:type="MSShapeGroup"></path>
                <path d="M4.54855556,24.5411212 L3.27022222,22.1398485 C5.58277778,20.9434848 7.69166667,18.7914545 9.20833333,16.079697 C10.5675556,13.6470909 11.2984444,10.9965758 11.2666667,8.61524242 L14.0168889,8.57821212 C14.0544444,11.421 13.2022222,14.5514848 11.6162222,17.3885758 C9.84388889,20.5617879 7.33344444,23.1026364 4.54855556,24.5411212" id="Fill-7" sketch:type="MSShapeGroup"></path>
                <path d="M37.9325556,24.6764242 C35.1491111,23.2365152 32.6372222,20.6970909 30.8648889,17.525303 C29.2788889,14.6867879 28.4252222,11.5577273 28.4656667,8.71351515 L31.2144444,8.75054545 C31.1841111,11.1304545 31.9135556,13.7823939 33.2742222,16.2164242 C34.7894444,18.9281818 36.8983333,21.0802121 39.2094444,22.2751515 L37.9325556,24.6764242" id="Fill-8" sketch:type="MSShapeGroup"></path>
                <path d="M28.4671111,9.24475758 C28.3053333,8.61524242 28.0568889,8.00424242 27.7261111,7.43454545 C25.7024444,3.92948485 21.1336667,2.7160303 17.5427778,4.73275758 C15.821,5.69839394 14.573,7.26221212 14.0284444,9.13081818 L11.3851111,8.38309091 C12.1275556,5.82942424 13.832,3.69590909 16.1821111,2.37563636 C21.0888889,-0.380272727 27.3404444,1.28609091 30.1152222,6.09148485 C30.5687778,6.87481818 30.9111111,7.71227273 31.1335556,8.57678788 L28.4671111,9.24475758" id="Fill-9" sketch:type="MSShapeGroup"></path>
                <path d="M10.3523333,39.756303 C4.74355556,39.756303 0.180555556,35.2286364 0.180555556,29.6584242 C0.180555556,26.9908182 1.21911111,24.4756061 3.10122222,22.5756667 L5.07,24.4713333 C3.69055556,25.8613939 2.93222222,27.7043636 2.93222222,29.6584242 C2.93222222,33.7317576 6.26022222,37.0473939 10.3523333,37.0473939 C11.0182222,37.0473939 11.6797778,36.9590909 12.3153333,36.7867576 L13.0462222,39.4016667 C12.1723333,39.6380909 11.2666667,39.756303 10.3523333,39.756303" id="Fill-10" sketch:type="MSShapeGroup"></path>
                <path d="M32.1287778,39.6238485 C31.2158889,39.6238485 30.3087778,39.5013636 29.4348889,39.2649394 L30.1672222,36.6500303 C30.8027778,36.8223636 31.4628889,36.9106667 32.1287778,36.9106667 C36.2208889,36.9106667 39.5503333,33.5950303 39.5503333,29.5231212 C39.5503333,27.5676364 38.7905556,25.7260909 37.4125556,24.3346061 L39.3798889,22.4403636 C41.2634444,24.3417273 42.3005556,26.8555152 42.3005556,29.5231212 C42.3005556,35.0919091 37.7375556,39.6238485 32.1287778,39.6238485" id="Fill-11" sketch:type="MSShapeGroup"></path>
                <path d="M13.3293333,39.3418485 L11.8444444,37.0587879 C14.4906667,35.3867273 17.9746667,34.4908788 21.6464444,34.5435758 C24.9311111,34.5891515 28.1117778,35.4066667 30.5976667,36.848 L29.2052222,39.1866061 C27.1223333,37.9788485 24.4241111,37.2952121 21.6074444,37.2567576 C18.4686667,37.2111818 15.5277778,37.9517879 13.3293333,39.3418485" id="Fill-12" sketch:type="MSShapeGroup"></path>
                <path d="M53.6423333,28.5076364 L53.6423333,15.8674848 L56.4488889,15.8674848 L60.4326667,25.6548788 L64.3644444,15.8674848 L67.1551111,15.8674848 L67.1551111,28.5076364 L65.2657778,28.5076364 L65.3177778,17.8486061 L61.074,28.5076364 L59.7393333,28.5076364 L55.4955556,17.8486061 L55.5475556,28.5076364 L53.6423333,28.5076364" id="Fill-13" sketch:type="MSShapeGroup"></path>
                <path d="M70.3155556,24.4243333 C70.4022222,26.3043333 72.0662222,27.2614242 73.4861111,27.2614242 C74.7514444,27.2614242 75.686,26.6632424 76.206,25.6890606 L78.0765556,25.6890606 C77.6258889,26.7145152 76.9686667,27.4821818 76.1713333,27.9949091 C75.374,28.5247273 74.4394444,28.7810909 73.4861111,28.7810909 C70.4022222,28.7810909 68.497,26.3385152 68.497,23.8788485 C68.497,21.2126667 70.6102222,18.9424242 73.4687778,18.9424242 C74.8193333,18.9424242 76.05,19.4380606 76.9498889,20.3082727 C78.0592222,21.4191818 78.5272222,22.8704848 78.3712222,24.4243333 L70.3155556,24.4243333 L70.3155556,24.4243333 Z M76.5873333,23.0413939 C76.5006667,21.8122727 75.2526667,20.4279091 73.4687778,20.4620909 C71.6328889,20.4620909 70.4368889,21.7766667 70.3502222,23.0413939 L76.5873333,23.0413939 L76.5873333,23.0413939 Z" id="Fill-14" sketch:type="MSShapeGroup"></path>
                <path d="M88.9965556,25.2461212 C88.4245556,27.2614242 86.5713333,28.7810909 84.214,28.7810909 C81.1315556,28.7810909 79.1743333,26.4396364 79.1743333,23.8617576 C79.1743333,21.1101212 81.3048889,18.9424242 84.1287778,18.9424242 C86.3806667,18.9424242 88.4072222,20.3082727 88.9965556,22.5457576 L87.1433333,22.5457576 C86.658,21.2995455 85.4793333,20.5988182 84.1981111,20.5988182 C83.2447778,20.5817273 82.5514444,20.8893636 81.8927778,21.5046364 C81.3395556,22.0501212 80.9755556,22.9217576 80.9755556,23.8617576 C80.9755556,25.7745152 82.3954444,27.1232727 84.1981111,27.1232727 C85.774,27.1061818 86.7605556,26.1676061 87.1433333,25.2461212 L88.9965556,25.2461212" id="Fill-15" sketch:type="MSShapeGroup"></path>
                <path d="M90.1795556,15.8674848 L91.9822222,15.8674848 L91.9822222,20.5133636 C92.5354444,19.4209697 93.8166667,18.9239091 95.0473333,18.9424242 C96.5192222,18.9424242 97.4552222,19.4209697 98.0618889,20.2399091 C98.6512222,21.0417576 98.8765556,22.1540909 98.8765556,23.4344848 L98.8765556,28.5076364 L97.0565556,28.5076364 L97.0565556,23.5199394 C97.0565556,22.6824848 96.9005556,21.9475758 96.5192222,21.4362727 C96.1046667,20.9221212 95.4806667,20.6159091 94.5446667,20.6159091 C93.5927778,20.6159091 92.9341111,20.9748182 92.5527778,21.4690303 C92.1541111,21.9660909 91.9822222,22.6312121 91.9822222,23.2635758 L91.9822222,28.5076364 L90.1795556,28.5076364 L90.1795556,15.8674848" id="Fill-16" sketch:type="MSShapeGroup"></path>
                <path d="M110.367111,28.5076364 L108.565889,28.5076364 L108.565889,26.8854242 C107.907222,28.1316364 106.555222,28.7810909 105.066,28.7810909 C102.035556,28.7810909 100.234333,26.4567273 100.234333,23.8617576 C100.234333,21.0260909 102.330222,18.9424242 105.066,18.9424242 C106.936556,18.9424242 108.132556,19.9664545 108.565889,20.8551818 L108.565889,19.2144545 L110.367111,19.2144545 L110.367111,28.5076364 L110.367111,28.5076364 Z M102.035556,23.8945152 C102.051444,25.2788788 103.039444,27.1232727 105.326,27.1232727 C106.764667,27.1232727 107.785889,26.3385152 108.253889,25.2788788 C108.461889,24.8516061 108.565889,24.3730606 108.583222,23.8945152 C108.600556,23.4159697 108.513889,22.9388485 108.305889,22.513 C107.855222,21.4362727 106.799333,20.5988182 105.292778,20.5988182 C103.316778,20.5988182 102.035556,22.1355758 102.035556,23.8788485 L102.035556,23.8945152 L102.035556,23.8945152 Z" id="Fill-17" sketch:type="MSShapeGroup"></path>
                <path d="M112.314222,19.2144545 L114.011444,19.2144545 L114.011444,20.6500909 C114.462111,19.693 115.519444,18.9239091 117.199333,18.9424242 C120.213889,18.9751818 121.009778,21.1286364 121.009778,23.0584848 L121.009778,28.5076364 L119.192667,28.5076364 L119.192667,23.4672424 C119.192667,21.7951818 118.534,20.5988182 116.696667,20.6159091 C114.928667,20.633 114.115444,21.7268182 114.115444,23.3319394 L114.115444,28.5076364 L112.314222,28.5076364 L112.314222,19.2144545" id="Fill-18" sketch:type="MSShapeGroup"></path>
                <path d="M122.904889,15.8674848 L124.706111,15.8674848 L124.706111,17.7460606 L122.904889,17.7460606 L122.904889,15.8674848 Z M122.904889,19.2144545 L124.706111,19.2144545 L124.706111,28.5062121 L122.904889,28.5062121 L122.904889,19.2144545 Z" id="Fill-19" sketch:type="MSShapeGroup"></path>
                <path d="M130.788667,21.6399394 C130.788667,20.9221212 130.338,20.3766364 129.420778,20.3937273 C128.536778,20.3937273 128.051444,20.9748182 128.068778,21.5886667 C128.104889,22.3235758 128.779444,22.6653939 129.784778,22.9388485 C131.222,23.3319394 132.799333,23.7421212 132.851333,25.7403333 C132.884556,27.5505455 131.359222,28.7810909 129.490111,28.7810909 C127.999444,28.7810909 126.146222,27.9436364 126.061,25.8257879 L127.844889,25.8257879 C127.914222,26.9537879 128.831444,27.3283636 129.507444,27.3283636 C130.374111,27.3283636 131.048667,26.7316061 131.048667,25.9454242 C131.031333,25.0225152 130.322111,24.716303 128.640778,24.1693939 C127.324889,23.7748788 126.284889,23.1610303 126.267556,21.7595758 C126.267556,20.0006364 127.723556,18.9424242 129.436667,18.9424242 C130.738111,18.9424242 132.435333,19.5733636 132.572556,21.6399394 L130.788667,21.6399394" id="Fill-20" sketch:type="MSShapeGroup"></path>
                <path d="M134.274111,19.2144545 L135.972778,19.2144545 L135.972778,20.5304545 C136.37,19.7442727 137.462,18.9424242 138.829889,18.9424242 C139.696556,18.9424242 140.597889,19.1973636 141.255111,19.9322727 C141.497778,20.1715455 141.759222,20.6671818 141.861778,20.8380909 C142.017778,20.5632121 142.208444,20.2399091 142.537778,19.9151818 C143.144444,19.317 144.009667,18.9424242 145.032333,18.9424242 C145.899,18.9424242 146.869667,19.181697 147.561556,19.881 C148.392111,20.7184545 148.601556,21.6071818 148.601556,23.3832121 L148.601556,28.5076364 L146.798889,28.5076364 L146.798889,23.4515758 C146.798889,22.6824848 146.696333,21.9148182 146.280333,21.385 C145.951,20.9064545 145.448333,20.6159091 144.599,20.6159091 C143.803111,20.6159091 143.127111,20.9406364 142.780444,21.5046364 C142.399111,22.084303 142.347111,22.5970303 142.347111,23.3832121 L142.347111,28.5076364 L140.528556,28.5076364 L140.528556,23.3832121 C140.545889,22.6141212 140.459222,22.0501212 140.145778,21.5373939 C139.800556,20.9904848 139.245889,20.633 138.363333,20.6159091 C137.514,20.5988182 136.891444,21.009 136.579444,21.520303 C136.232778,22.0159394 136.075333,22.6653939 136.075333,23.4159697 L136.075333,28.5076364 L134.274111,28.5076364 L134.274111,19.2144545" id="Fill-21" sketch:type="MSShapeGroup"></path>
                <path d="M155.006222,28.5076364 L155.006222,15.8674848 L155.836778,15.8674848 L161.760444,27.6872727 L167.668222,15.8674848 L168.482889,15.8674848 L168.482889,28.5076364 L167.962889,28.5076364 L167.962889,16.3802121 L161.900556,28.5076364 L161.605889,28.5076364 L155.524778,16.3802121 L155.524778,28.5076364 L155.006222,28.5076364" id="Fill-22" sketch:type="MSShapeGroup"></path>
            </g>
        </g>
    </g>
</svg>