<?xml version="1.0" encoding="UTF-8" standalone="no"?>
<svg width="77px" height="83px" viewBox="0 0 77 83" version="1.1" xmlns="http://www.w3.org/2000/svg" xmlns:xlink="http://www.w3.org/1999/xlink" xmlns:sketch="http://www.bohemiancoding.com/sketch/ns">
    <!-- Generator: Sketch 3.3 (11970) - http://www.bohemiancoding.com/sketch -->
    <title>Imported Layers</title>
    <desc>Created with Sketch.</desc>
    <defs></defs>
    <g id="Page-1" stroke="none" stroke-width="1" fill="none" fill-rule="evenodd" sketch:type="MSPage">
        <g id="1.-Mission" sketch:type="MSArtboardGroup" transform="translate(-56.000000, -308.000000)" stroke="#A4A9AD" stroke-width="3">
            <path d="M78.9999626,322.206055 C77.6162428,321.806039 76.1571418,321.584252 74.6481581,321.567153 C65.5565034,321.46431 58.1034284,328.832204 58.0010636,338.024067 C57.9504382,342.574006 59.7101972,346.717814 62.6033959,349.755558 M78.7475783,321.997997 C78.7146532,326.756368 77.2738714,332.167744 74.3757216,337.33287 C71.1619366,343.060265 66.7671809,347.394782 62.2695652,349.763796 M110.673396,322.359071 C110.30664,320.955586 109.749389,319.577811 108.992112,318.261817 C104.429637,310.331656 94.3385946,307.64238 86.4531613,312.255223 C82.5496825,314.538368 79.9185229,318.182563 78.8094675,322.243123 M110.721917,322.033942 C106.649976,324.439275 101.301507,325.958834 95.417448,326.089385 C88.8928356,326.234414 82.9510962,324.643464 78.6317216,321.958182 M110.440692,322.276198 C111.824412,321.876307 113.283637,321.65452 114.792497,321.637421 C123.884152,321.534453 131.337226,328.902347 131.439468,338.094085 C131.490217,342.644024 129.730458,346.787957 126.837259,349.825701 M110.6932,322.06789 C110.726002,326.826511 112.166783,332.237762 115.064933,337.402889 C118.278718,343.130408 122.673598,347.464676 127.17109,349.833814 M78.9999626,377.115476 C77.6162428,377.515491 76.1571418,377.737278 74.6481581,377.754377 C65.5565034,377.85722 58.1034284,370.489327 58.0010636,361.297464 C57.9504382,356.747525 59.7101972,352.603717 62.6033959,349.565972 M78.7475783,377.323659 C78.7146532,372.565163 77.2738714,367.153787 74.3757216,361.988785 C71.1619366,356.261266 66.7671809,351.926749 62.2695652,349.557735 M110.673396,376.962459 C110.30664,378.365945 109.749389,379.74372 108.992112,381.059714 C104.429637,388.989875 94.3385946,391.67915 86.4531613,387.066307 C82.5496825,384.783163 79.9185229,381.138968 78.8094675,377.078408 M110.721917,377.287714 C106.649976,374.882255 101.301507,373.362697 95.417448,373.232271 C88.8928356,373.087117 82.9510962,374.678192 78.6317216,377.363348 M110.440692,377.045333 C111.824412,377.445223 113.283637,377.667135 114.792497,377.684109 C123.884152,377.787202 131.337226,370.419309 131.439468,361.227446 C131.490217,356.677507 129.730458,352.533698 126.837259,349.495829 M110.6932,377.253641 C110.726002,372.49502 112.166783,367.083768 115.064933,361.918642 C118.278718,356.191123 122.673598,351.856855 127.17109,349.487717" id="Imported-Layers" sketch:type="MSShapeGroup"></path>
        </g>
    </g>
</svg>